<svg width="32" height="32" viewBox="0 0 32 32" fill="none" xmlns="http://www.w3.org/2000/svg">
<path d="M13.0562 7.74405C13.0562 8.55472 13.3442 9.24272 13.9202 9.80805C14.4962 10.3734 15.1895 10.656 16.0002 10.656C16.8109 10.656 17.5042 10.3734 18.0802 9.80805C18.6562 9.24272 18.9442 8.55472 18.9442 7.74405C18.9442 6.93338 18.6562 6.24005 18.0802 5.66405C17.5042 5.08805 16.8109 4.80005 16.0002 4.80005C15.1895 4.80005 14.4962 5.08805 13.9202 5.66405C13.3442 6.24005 13.0562 6.93338 13.0562 7.74405ZM1.85619 17.888C2.28285 18.2934 2.78419 18.5547 3.36019 18.672C3.93619 18.7894 4.50152 18.736 5.05619 18.512C5.61085 18.288 6.05352 17.9307 6.38419 17.44C6.71485 16.9494 6.88019 16.4054 6.88019 15.808C6.88019 15.2107 6.71485 14.6667 6.38419 14.176C6.05352 13.6854 5.61619 13.3227 5.07219 13.088C4.52819 12.8534 3.96285 12.7947 3.37619 12.912C2.78952 13.0294 2.28285 13.3014 1.85619 13.728C1.28019 14.304 0.992188 14.9974 0.992188 15.808C0.992188 16.6187 1.28019 17.312 1.85619 17.888ZM16.0002 12.416C15.3815 12.416 14.7949 12.2987 14.2402 12.064C14.0269 11.9787 13.8349 12 13.6642 12.128L12.2242 13.088C12.1175 13.1734 12.0375 13.28 11.9842 13.408C11.9309 13.536 11.9255 13.664 11.9682 13.792L15.3922 26.112C15.4562 26.3254 15.5735 26.4694 15.7442 26.544C15.9149 26.6187 16.0909 26.6187 16.2722 26.544C16.4535 26.4694 16.5655 26.3254 16.6082 26.112L20.0322 13.792C20.0749 13.664 20.0695 13.536 20.0162 13.408C19.9629 13.28 19.8829 13.1734 19.7762 13.088L18.3362 12.128C18.1655 12 17.9735 11.9787 17.7602 12.064C17.2055 12.2987 16.6189 12.416 16.0002 12.416ZM10.4962 16.832L8.67219 17.184C8.50152 17.2267 8.38419 17.3227 8.32019 17.472C8.08552 18.0694 7.74419 18.6027 7.29619 19.072C6.84819 19.5414 6.32552 19.8934 5.72819 20.128C5.60019 20.192 5.51485 20.288 5.47219 20.416L5.12019 22.272C5.09885 22.3787 5.11485 22.48 5.16819 22.576C5.22152 22.672 5.29085 22.7414 5.37619 22.784L12.8322 26.528C13.0242 26.6347 13.2002 26.6187 13.3602 26.48C13.5202 26.3414 13.5682 26.176 13.5042 25.984L11.0722 17.184C11.0295 17.056 10.9549 16.96 10.8482 16.896C10.7415 16.832 10.6242 16.8107 10.4962 16.832ZM30.1442 17.888C29.7175 18.2934 29.2162 18.5547 28.6402 18.672C28.0642 18.7894 27.4989 18.736 26.9442 18.512C26.3895 18.288 25.9469 17.9307 25.6162 17.44C25.2855 16.9494 25.1202 16.4054 25.1202 15.808C25.1202 15.2107 25.2855 14.6667 25.6162 14.176C25.9469 13.6854 26.3842 13.3227 26.9282 13.088C27.4722 12.8534 28.0375 12.7947 28.6242 12.912C29.2109 13.0294 29.7175 13.3014 30.1442 13.728C30.7202 14.304 31.0082 14.9974 31.0082 15.808C31.0082 16.6187 30.7202 17.312 30.1442 17.888ZM21.5042 16.832L23.3282 17.184C23.4989 17.2267 23.6162 17.3227 23.6802 17.472C23.9149 18.0694 24.2562 18.5974 24.7042 19.056C25.1522 19.5147 25.6642 19.872 26.2402 20.128C26.4109 20.192 26.5069 20.3094 26.5282 20.48L26.8802 22.336C26.9015 22.4214 26.8909 22.5014 26.8482 22.576C26.8055 22.6507 26.7522 22.7094 26.6882 22.752L19.1682 26.528C18.9762 26.6347 18.8002 26.6187 18.6402 26.48C18.4802 26.3414 18.4322 26.176 18.4962 25.984L20.9282 17.184C20.9709 17.056 21.0455 16.96 21.1522 16.896C21.2589 16.832 21.3762 16.8107 21.5042 16.832Z" fill="white"/>
</svg>
