<svg width="25" height="25" viewBox="0 0 25 25" fill="none" xmlns="http://www.w3.org/2000/svg">
<path d="M2.63731 16.5918C3.85935 13.642 6.73787 11.7188 9.93074 11.7188H12.9753C16.1681 11.7188 19.0466 13.642 20.2687 16.5918C21.4651 19.4796 19.3427 22.6562 16.2167 22.6562H6.68922C3.56337 22.6562 1.44093 19.4796 2.63731 16.5918Z" fill="white"/>
<path d="M7.55176 6.25C7.55176 4.09264 9.30064 2.34375 11.458 2.34375C13.6154 2.34375 15.3643 4.09264 15.3643 6.25C15.3643 8.40736 13.6154 10.1562 11.458 10.1562C9.30064 10.1562 7.55176 8.40736 7.55176 6.25Z" fill="white"/>
<path d="M17.708 4.69117C18.1981 5.12462 18.4893 5.66615 18.4894 6.25351C18.4896 6.84089 18.1985 7.38228 17.7086 7.81555M20.5295 3.125C21.2234 4.06652 21.6143 5.12946 21.6145 6.2544C21.6147 7.37601 21.2267 8.43582 20.5368 9.375" stroke="white" stroke-width="1.5" stroke-linecap="round" stroke-linejoin="round"/>
</svg>
