<svg width="30" height="30" viewBox="0 0 30 30" fill="none" xmlns="http://www.w3.org/2000/svg">
<path fill-rule="evenodd" clip-rule="evenodd" d="M3.94646 5.26003C2.8125 6.82079 2.8125 9.04719 2.8125 13.5V16.5C2.8125 20.9527 2.8125 23.1792 3.94646 24.74C4.31269 25.244 4.75596 25.6874 5.26003 26.0535C6.82079 27.1875 9.04719 27.1875 13.5 27.1875H16.5C20.9527 27.1875 23.1792 27.1875 24.74 26.0535C25.244 25.6874 25.6874 25.244 26.0535 24.74C27.1875 23.1792 27.1875 20.9527 27.1875 16.5V13.5C27.1875 9.04719 27.1875 6.82079 26.0535 5.26003C25.6874 4.75596 25.244 4.31269 24.74 3.94646C23.1792 2.8125 20.9527 2.8125 16.5 2.8125H13.5C9.04719 2.8125 6.82079 2.8125 5.26003 3.94646C4.75596 4.31269 4.31269 4.75596 3.94646 5.26003ZM10.9375 7.5C10.9375 6.98224 10.5178 6.5625 10 6.5625C9.48224 6.5625 9.0625 6.98224 9.0625 7.5V9.06255H7.5C6.98224 9.06255 6.5625 9.48229 6.5625 10.0001C6.5625 10.5178 6.98224 10.9375 7.5 10.9375H9.0625V12.5C9.0625 13.0177 9.48224 13.4375 10 13.4375C10.5178 13.4375 10.9375 13.0177 10.9375 12.5V10.9375H12.5C13.0177 10.9375 13.4375 10.5178 13.4375 10.0001C13.4375 9.48229 13.0177 9.06255 12.5 9.06255H10.9375V7.5ZM17.5 9.0625C16.9823 9.0625 16.5625 9.48224 16.5625 10C16.5625 10.5178 16.9823 10.9375 17.5 10.9375H22.5C23.0177 10.9375 23.4375 10.5178 23.4375 10C23.4375 9.48224 23.0177 9.0625 22.5 9.0625H17.5ZM17.5 17.1875C16.9823 17.1875 16.5625 17.6073 16.5625 18.125C16.5625 18.6427 16.9823 19.0625 17.5 19.0625H22.5C23.0177 19.0625 23.4375 18.6427 23.4375 18.125C23.4375 17.6073 23.0177 17.1875 22.5 17.1875H17.5ZM8.89515 17.5694C8.52902 17.2032 7.93544 17.2032 7.56932 17.5694C7.2032 17.9355 7.2032 18.529 7.56932 18.8951L8.67421 20L7.56936 21.1049C7.20324 21.471 7.20324 22.0646 7.56936 22.4307C7.93547 22.7969 8.52906 22.7969 8.89519 22.4307L10 21.3259L11.1048 22.4306C11.471 22.7967 12.0646 22.7967 12.4307 22.4306C12.7968 22.0646 12.7968 21.471 12.4307 21.1049L11.3259 20L12.4307 18.8951C12.7969 18.5291 12.7969 17.9355 12.4307 17.5694C12.0646 17.2032 11.471 17.2032 11.1049 17.5694L10 18.6742L8.89515 17.5694ZM17.5 20.9375C16.9823 20.9375 16.5625 21.3573 16.5625 21.875C16.5625 22.3927 16.9823 22.8125 17.5 22.8125H22.5C23.0177 22.8125 23.4375 22.3927 23.4375 21.875C23.4375 21.3573 23.0177 20.9375 22.5 20.9375H17.5Z" fill="white"/>
</svg>
