<svg width="32" height="32" viewBox="0 0 32 32" fill="none" xmlns="http://www.w3.org/2000/svg">
<path d="M6.00742 9.81654L4.09119 12.1158L2.38812 12.2818C2.15272 12.1452 1.88275 12.0612 1.59169 12.0612C0.641966 12.0612 0 12.8937 0 13.584C0 13.7538 0.0178646 17.472 0.0178646 18.7983C0.0178646 19.1293 0.909871 21.5263 1.02963 21.8709L0.36458 25.9062C0.268937 26.4862 0.660862 27.0347 1.24182 27.1302C1.83967 27.2242 2.37232 26.8198 2.46467 26.2524L2.73368 24.6261C2.81565 24.9823 3.06149 25.2921 3.43659 25.4093C3.99865 25.5853 4.59534 25.2717 4.76979 24.7117L5.86766 21.2074C5.99175 20.8124 5.87508 20.381 5.56822 20.1021L3.18868 17.9347V14.3425L4.73297 14.1923C5.01132 14.1655 5.26781 14.03 5.44742 13.8146L7.64426 11.1797C8.02038 10.7278 7.9584 10.0565 7.50772 9.68039C7.05279 9.30382 6.38354 9.36521 6.00742 9.81654ZM3.63426 21.2195L2.91871 23.5014L3.17397 21.9496C3.20344 21.7747 3.18764 21.5945 3.12979 21.4269L2.79049 20.4508L3.63426 21.2195Z" fill="white"/>
<path d="M2.12497 11.6622C3.22716 11.6622 4.1211 10.7687 4.1211 9.66605C4.1211 8.56341 3.22716 7.66992 2.12497 7.66992C1.02285 7.66992 0.128906 8.56335 0.128906 9.66605C0.128906 10.7687 1.02291 11.6622 2.12497 11.6622Z" fill="white"/>
<path d="M30.9356 20.4053H28.0852L27.7722 18.3913C27.7722 18.2626 27.7722 18.1596 27.7722 18.0677C27.7722 17.7336 27.7722 17.6249 27.7722 17.6332C27.7722 17.0685 27.7722 15.8551 27.7722 13.4181C27.7722 12.5408 27.0483 11.8212 26.1752 11.8212C25.9766 11.8212 25.7896 11.8617 25.6152 11.9278L23.9405 11.5822L21.3802 8.71608C20.9871 8.27797 20.3138 8.24063 19.8766 8.63204C19.4385 9.02345 19.4006 9.69637 19.7915 10.135L22.5863 13.2632C22.7396 13.4329 22.9424 13.55 23.1652 13.5963L24.5783 13.8879V17.8323C24.5783 17.8371 24.5793 17.8422 24.5804 17.8475L22.9319 20.3911C22.8006 20.5928 22.7428 20.8334 22.7648 21.073L23.2197 25.7782C23.2744 26.3549 23.7839 26.7893 24.3807 26.7352C24.9659 26.6791 25.3956 26.1585 25.3389 25.5733L24.9207 21.2374L25.84 19.8195L26.1215 21.6339C26.2025 22.152 26.6489 22.535 27.1732 22.535H30.9356C31.5239 22.535 31.9999 22.058 31.9999 21.4701C31.9999 20.8822 31.5239 20.4053 30.9356 20.4053Z" fill="white"/>
<path d="M25.6447 11.4221C26.7468 11.4221 27.6408 10.5285 27.6408 9.42588C27.6408 8.32324 26.7468 7.42969 25.6447 7.42969C24.5425 7.42969 23.6484 8.32324 23.6484 9.42588C23.6484 10.5285 24.5425 11.4221 25.6447 11.4221Z" fill="white"/>
<path d="M15.1143 4.85547C14.0982 4.85547 13.2734 5.68021 13.2734 6.69623C13.2734 7.71323 14.0982 8.53739 15.1143 8.53739C16.1313 8.53739 16.956 7.71323 16.956 6.69623C16.956 5.68014 16.1313 4.85547 15.1143 4.85547Z" fill="white"/>
</svg>
