<svg width="35" height="35" viewBox="0 0 35 35" fill="none" xmlns="http://www.w3.org/2000/svg">
<path opacity="0.4" d="M21.8757 5.83398H13.1257C9.10065 5.83398 5.83398 9.10065 5.83398 13.1257V21.8757C5.83398 25.9007 9.10065 29.1673 13.1257 29.1673H21.8757C25.9007 29.1673 29.1673 25.9007 29.1673 21.8757V13.1257C29.1673 9.10065 25.9007 5.83398 21.8757 5.83398ZM25.1715 20.7965C25.1715 23.2173 23.2173 25.1715 20.7965 25.1715H14.2048C11.784 25.1715 9.82982 23.2173 9.82982 20.7965V14.2048C9.82982 11.784 11.784 9.82982 14.2048 9.82982H20.7819C23.2027 9.82982 25.1569 11.784 25.1569 14.2048V20.7965H25.1715Z" fill="white"/>
<path d="M13.2129 4.00977V5.83268H13.1254C12.3962 5.83268 11.6962 5.93477 11.0254 6.13893V4.00977C11.0254 3.41185 11.5066 2.91602 12.1191 2.91602C12.7171 2.91602 13.2129 3.41185 13.2129 4.00977Z" fill="white"/>
<path d="M18.5938 4.00977V5.83268H16.4062V4.00977C16.4062 3.41185 16.9021 2.91602 17.5 2.91602C18.0979 2.91602 18.5938 3.41185 18.5938 4.00977Z" fill="white"/>
<path d="M23.9902 4.00977V6.13893C23.3194 5.93477 22.6048 5.83268 21.8757 5.83268H21.8027V4.00977C21.8027 3.41185 22.2986 2.91602 22.8965 2.91602C23.4944 2.91602 23.9902 3.41185 23.9902 4.00977Z" fill="white"/>
<path d="M32.0842 12.1035C32.0842 12.716 31.603 13.1973 30.9905 13.1973H29.1676V13.1243C29.1676 12.3952 29.0655 11.6806 28.8613 11.0098H30.9905C31.603 11.0098 32.0842 11.5056 32.0842 12.1035Z" fill="white"/>
<path d="M32.0827 17.5C32.0827 18.0979 31.6014 18.5938 30.9889 18.5938H29.166V16.4062H30.9889C31.6014 16.4062 32.0827 16.8875 32.0827 17.5Z" fill="white"/>
<path d="M32.0842 22.8965C32.0842 23.4944 31.603 23.9902 30.9905 23.9902H28.8613C29.0655 23.3194 29.1676 22.6048 29.1676 21.8757V21.8027H30.9905C31.603 21.8027 32.0842 22.284 32.0842 22.8965Z" fill="white"/>
<path d="M23.9902 28.8613V30.9905C23.9902 31.5884 23.4944 32.0842 22.8965 32.0842C22.2986 32.0842 21.8027 31.5884 21.8027 30.9905V29.1676H21.8757C22.6048 29.1676 23.3194 29.0655 23.9902 28.8613Z" fill="white"/>
<path d="M18.6074 29.166V30.9889C18.6074 31.5868 18.1116 32.0827 17.5137 32.0827C16.9012 32.0827 16.4199 31.5868 16.4199 30.9889V29.166H18.6074Z" fill="white"/>
<path d="M13.2129 29.1676V30.9905C13.2129 31.5884 12.7171 32.0842 12.1191 32.0842C11.5066 32.0842 11.0254 31.5884 11.0254 30.9905V28.8613C11.6962 29.0655 12.3962 29.1676 13.1254 29.1676H13.2129Z" fill="white"/>
<path d="M6.13893 11.0098C5.93477 11.6806 5.83268 12.3952 5.83268 13.1243V13.1973H4.00977C3.41185 13.1973 2.91602 12.716 2.91602 12.1035C2.91602 11.5056 3.41185 11.0098 4.00977 11.0098H6.13893Z" fill="white"/>
<path d="M5.83268 16.4062V18.5938H4.00977C3.41185 18.5938 2.91602 18.0979 2.91602 17.5C2.91602 16.8875 3.41185 16.4062 4.00977 16.4062H5.83268Z" fill="white"/>
<path d="M6.13893 23.9902H4.00977C3.41185 23.9902 2.91602 23.4944 2.91602 22.8965C2.91602 22.284 3.41185 21.8027 4.00977 21.8027H5.83268V21.8757C5.83268 22.6048 5.93477 23.3194 6.13893 23.9902Z" fill="white"/>
<path d="M20.7967 9.83008H14.2051C11.7842 9.83008 9.83008 11.7842 9.83008 14.2051V20.7822C9.83008 23.203 11.7842 25.1572 14.2051 25.1572H20.7822C23.203 25.1572 25.1572 23.203 25.1572 20.7822V14.2051C25.1717 11.7988 23.203 9.83008 20.7967 9.83008ZM19.8197 19.0176L18.4488 21.4092C18.2447 21.7592 17.8801 21.9634 17.5009 21.9634C17.3113 21.9634 17.1217 21.9197 16.9613 21.8176C16.4363 21.5113 16.2613 20.8405 16.553 20.3301L17.5447 18.6092H16.6842C15.9842 18.6092 15.4155 18.303 15.1092 17.778C14.803 17.253 14.8322 16.5967 15.1676 15.9988L16.5384 13.6072C16.8447 13.0822 17.5155 12.9072 18.0259 13.1988C18.5509 13.5051 18.7259 14.1759 18.4342 14.6863L17.4426 16.4072H18.303C19.003 16.4072 19.5717 16.7134 19.878 17.2384C20.1988 17.7634 20.1697 18.4051 19.8197 19.0176Z" fill="white"/>
</svg>
