<svg width="37" height="37" viewBox="0 0 37 37" fill="none" xmlns="http://www.w3.org/2000/svg">
<path d="M20.0423 18.5007C20.0423 19.3521 19.3521 20.0423 18.5007 20.0423C17.6492 20.0423 16.959 19.3521 16.959 18.5007C16.959 17.6492 17.6492 16.959 18.5007 16.959C19.3521 16.959 20.0423 17.6492 20.0423 18.5007Z" fill="white"/>
<path d="M23.8952 18.5C23.8952 10.8371 21.4794 4.625 18.4994 4.625C15.5194 4.625 13.1035 10.8371 13.1035 18.5C13.1035 26.163 15.5194 32.375 18.4994 32.375C21.4794 32.375 23.8952 26.163 23.8952 18.5Z" stroke="white" stroke-width="2" stroke-linejoin="round"/>
<path d="M15.8017 23.1731C9.16532 19.3416 4.99344 14.1434 6.48346 11.5626C7.97348 8.98185 14.5612 9.99573 21.1975 13.8272C27.8338 17.6587 32.0057 22.8569 30.5157 25.4376C29.0256 28.0184 22.4379 27.0046 15.8017 23.1731Z" stroke="white" stroke-width="2" stroke-linejoin="round"/>
<path d="M21.1975 23.173C27.8338 19.3415 32.0057 14.1434 30.5157 11.5626C29.0256 8.98185 22.4379 9.99573 15.8017 13.8272C9.16534 17.6586 4.99343 22.8568 6.48346 25.4376C7.97348 28.0185 14.5612 27.0045 21.1975 23.173Z" stroke="white" stroke-width="2" stroke-linejoin="round"/>
</svg>
