<svg width="32" height="32" viewBox="0 0 32 32" fill="none" xmlns="http://www.w3.org/2000/svg">
<path d="M3.37662 21.2375C4.94083 17.4617 8.62534 15 12.7122 15H16.6092C20.696 15 24.3805 17.4617 25.9448 21.2375C27.4761 24.9339 24.7595 29 20.7583 29H8.56306C4.56198 29 1.84525 24.9339 3.37662 21.2375Z" fill="white"/>
<path d="M9.66602 8C9.66602 5.23857 11.9046 3 14.666 3C17.4275 3 19.666 5.23857 19.666 8C19.666 10.7614 17.4275 13 14.666 13C11.9046 13 9.66602 10.7614 9.66602 8Z" fill="white"/>
<path d="M22.666 6.00469C23.2933 6.55952 23.666 7.25267 23.6661 8.00449C23.6664 8.75633 23.2939 9.44932 22.6668 10.0039M26.2775 4C27.1657 5.20515 27.666 6.56571 27.6663 8.00563C27.6665 9.44129 27.1699 10.7979 26.2868 12" stroke="white" stroke-width="3.125" stroke-linecap="round" stroke-linejoin="round"/>
</svg>
