<svg width="32" height="32" viewBox="0 0 32 32" fill="none" xmlns="http://www.w3.org/2000/svg">
<path opacity="0.4" d="M11.9993 2.66602C8.50602 2.66602 5.66602 5.50602 5.66602 8.99935C5.66602 12.426 8.34602 15.1993 11.8393 15.3193C11.946 15.306 12.0527 15.306 12.1327 15.3193C12.1593 15.3193 12.1727 15.3193 12.1993 15.3193C12.2127 15.3193 12.2127 15.3193 12.226 15.3193C15.6393 15.1993 18.3193 12.426 18.3327 8.99935C18.3327 5.50602 15.4927 2.66602 11.9993 2.66602Z" fill="white"/>
<path d="M18.7733 18.8659C15.0533 16.3859 8.98661 16.3859 5.23995 18.8659C3.54661 19.9992 2.61328 21.5325 2.61328 23.1725C2.61328 24.8125 3.54661 26.3325 5.22661 27.4525C7.09328 28.7059 9.54661 29.3325 11.9999 29.3325C14.4533 29.3325 16.9066 28.7059 18.7733 27.4525C20.4533 26.3192 21.3866 24.7992 21.3866 23.1459C21.3733 21.5059 20.4533 19.9859 18.7733 18.8659Z" fill="white"/>
<path opacity="0.4" d="M26.6525 9.78615C26.8658 12.3728 25.0258 14.6395 22.4792 14.9461C22.4658 14.9461 22.4658 14.9461 22.4525 14.9461H22.4125C22.3325 14.9461 22.2525 14.9461 22.1858 14.9728C20.8925 15.0395 19.7058 14.6261 18.8125 13.8661C20.1858 12.6395 20.9725 10.7995 20.8125 8.79948C20.7192 7.71948 20.3458 6.73282 19.7858 5.89282C20.2925 5.63948 20.8792 5.47948 21.4792 5.42615C24.0925 5.19948 26.4258 7.14615 26.6525 9.78615Z" fill="white"/>
<path d="M29.321 22.1199C29.2143 23.4132 28.3876 24.5332 27.001 25.2932C25.6676 26.0265 23.9876 26.3732 22.321 26.3332C23.281 25.4665 23.841 24.3865 23.9476 23.2399C24.081 21.5865 23.2943 19.9999 21.721 18.7332C20.8276 18.0265 19.7876 17.4665 18.6543 17.0532C21.601 16.1999 25.3076 16.7732 27.5876 18.6132C28.8143 19.5999 29.441 20.8399 29.321 22.1199Z" fill="white"/>
</svg>
