<svg width="30" height="30" viewBox="0 0 30 30" fill="none" xmlns="http://www.w3.org/2000/svg">
<path fill-rule="evenodd" clip-rule="evenodd" d="M23.8411 15.8353C22.8513 14.7216 21.1112 14.7216 20.1213 15.8353C19.7649 16.2363 19.2886 16.5113 18.7632 16.6194C17.3037 16.9198 16.4337 18.4268 16.9032 19.8409C17.0723 20.3499 17.0723 20.9001 16.9032 21.4092C16.4337 22.8233 17.3037 24.3302 18.7632 24.6306C19.2886 24.7388 19.7649 25.0138 20.1213 25.4148C21.1112 26.5284 22.8513 26.5284 23.8411 25.4148C24.1974 25.0138 24.6739 24.7388 25.1993 24.6306C26.6587 24.3302 27.5287 22.8233 27.0592 21.4092C26.8902 20.9001 26.8902 20.3499 27.0592 19.8409C27.5287 18.4268 26.6587 16.9198 25.1993 16.6194C24.6739 16.5113 24.1974 16.2363 23.8411 15.8353ZM21.9674 21.9487C22.6989 21.9487 23.2919 21.3557 23.2919 20.6242C23.2919 19.8927 22.6989 19.2997 21.9674 19.2997C21.2359 19.2997 20.6429 19.8927 20.6429 20.6242C20.6429 21.3557 21.2359 21.9487 21.9674 21.9487Z" fill="white"/>
<path fill-rule="evenodd" clip-rule="evenodd" d="M13.8036 2.8125C11.2148 2.8125 9.1161 4.91116 9.1161 7.5C9.1161 10.0888 11.2148 12.1875 13.8036 12.1875C16.3925 12.1875 18.4911 10.0888 18.4911 7.5C18.4911 4.91116 16.3925 2.8125 13.8036 2.8125ZM11.9708 14.0625C8.13935 14.0625 4.68513 16.3704 3.21868 19.9101C1.78302 23.3755 4.32997 27.1875 8.08097 27.1875H17.9288C15.623 25.9081 14.0625 23.4487 14.0625 20.625C14.0625 17.9449 15.4684 15.593 17.5829 14.2667C16.9471 14.1325 16.2914 14.0625 15.6243 14.0625H11.9708Z" fill="white"/>
</svg>
