<svg width="36" height="36" viewBox="0 0 36 36" fill="none" xmlns="http://www.w3.org/2000/svg">
<path d="M31.4382 22.6658C30.8277 26.2575 26.247 29.25 26.247 29.25C26.247 29.25 21.6327 26.2574 21.0559 22.6661C20.479 19.0746 24.5166 17.8775 26.247 20.6613C27.9774 17.8773 32.0487 19.0742 31.4382 22.6658Z" stroke="white" stroke-width="3.125" stroke-linecap="round" stroke-linejoin="round"/>
<path fill-rule="evenodd" clip-rule="evenodd" d="M16.5644 3.375C13.4577 3.375 10.9393 5.89339 10.9393 9C10.9393 12.1066 13.4577 14.625 16.5644 14.625C19.671 14.625 22.1894 12.1066 22.1894 9C22.1894 5.89339 19.671 3.375 16.5644 3.375ZM14.365 16.875C9.76723 16.875 5.62216 19.6444 3.86242 23.8921C2.13962 28.0506 5.19596 32.625 9.69718 32.625H23.4168C24.0861 32.625 24.7236 32.5239 25.3181 32.3379C25.2734 32.3046 25.2263 32.2689 25.1762 32.2311C23.04 30.6152 18.4359 26.6488 18.0419 22.2239C17.7678 19.5975 18.87 17.811 20.4272 16.9992C19.8771 16.9171 19.3166 16.875 18.7491 16.875H14.365Z" fill="white"/>
</svg>
