<svg width="32" height="32" viewBox="0 0 32 32" fill="none" xmlns="http://www.w3.org/2000/svg">
<path fill-rule="evenodd" clip-rule="evenodd" d="M24.3864 16.6019C23.6363 15.7994 22.3638 15.7994 21.6136 16.6019C21.2396 17.0022 20.7108 17.2212 20.1632 17.2027C19.0655 17.1656 18.1656 18.0655 18.2027 19.1632C18.2212 19.7108 18.0022 20.2396 17.6019 20.6136C16.7994 21.3638 16.7994 22.6363 17.6019 23.3864C18.0022 23.7604 18.2212 24.2892 18.2027 24.8368C18.1656 25.9346 19.0655 26.8344 20.1632 26.7974C20.7108 26.7788 21.2396 26.9979 21.6136 27.3982C22.3638 28.2007 23.6363 28.2007 24.3864 27.3982C24.7604 26.9979 25.2892 26.7788 25.8368 26.7974C26.9346 26.8344 27.8344 25.9346 27.7974 24.8368C27.7788 24.2892 27.9979 23.7604 28.3982 23.3864C29.2007 22.6363 29.2007 21.3638 28.3982 20.6136C27.9979 20.2396 27.7788 19.7108 27.7974 19.1632C27.8344 18.0655 26.9346 17.1656 25.8368 17.2027C25.2892 17.2212 24.7604 17.0022 24.3864 16.6019ZM25.8143 21.1999C26.2008 20.8055 26.1944 20.1724 25.7999 19.7858C25.4055 19.3992 24.7724 19.4056 24.3858 19.8002L22.2171 22.0131L21.6658 21.3568C21.3106 20.9339 20.6798 20.8791 20.2568 21.2343C19.8339 21.5895 19.7791 22.2203 20.1343 22.6432L21.3943 24.1432C21.5758 24.3592 21.8399 24.4884 22.1218 24.4992C22.4035 24.5102 22.6768 24.4014 22.8743 24.1999L25.8143 21.1999Z" fill="white"/>
<path fill-rule="evenodd" clip-rule="evenodd" d="M14.7239 3C11.9624 3 9.72384 5.23857 9.72384 8C9.72384 10.7614 11.9624 13 14.7239 13C17.4853 13 19.7239 10.7614 19.7239 8C19.7239 5.23857 17.4853 3 14.7239 3ZM12.7689 15C8.68198 15 4.99747 17.4617 3.43326 21.2375C1.90189 24.9339 4.61863 29 8.6197 29H19.124C16.6645 27.6353 15 25.012 15 22C15 19.1412 16.4996 16.6325 18.7551 15.2179C18.0769 15.0747 17.3775 15 16.6659 15H12.7689Z" fill="white"/>
</svg>
