<svg width="32" height="32" viewBox="0 0 32 32" fill="none" xmlns="http://www.w3.org/2000/svg">
<path fill-rule="evenodd" clip-rule="evenodd" d="M15.9996 3C13.2382 3 10.9996 5.23857 10.9996 8C10.9996 10.7614 13.2382 13 15.9996 13C18.7611 13 20.9996 10.7614 20.9996 8C20.9996 5.23857 18.7611 3 15.9996 3ZM14.441 15C10.1142 15 6.21339 17.6063 4.55735 21.6036C3.09822 25.1256 5.6868 29 9.49916 29H22.4871C26.2995 29 28.888 25.1256 27.429 21.6036C25.7728 17.6063 21.872 15 17.5452 15H14.441ZM15.9999 18.6667C16.4588 18.6667 16.8588 18.9789 16.97 19.4241C17.1084 19.9777 17.291 20.2935 17.4987 20.5012C17.7064 20.7089 18.0222 20.8915 18.5758 21.0299C19.021 21.1412 19.3332 21.5411 19.3332 22C19.3332 22.4589 19.021 22.8588 18.5758 22.9701C18.0222 23.1085 17.7064 23.2911 17.4987 23.4988C17.291 23.7065 17.1084 24.0223 16.97 24.5759C16.8588 25.0211 16.4588 25.3333 15.9999 25.3333C15.5411 25.3333 15.1411 25.0211 15.0298 24.5759C14.8914 24.0223 14.7088 23.7065 14.5011 23.4988C14.2935 23.2911 13.9778 23.1085 13.424 22.9701C12.9789 22.8588 12.6666 22.4589 12.6666 22C12.6666 21.5411 12.9789 21.1412 13.424 21.0299C13.9778 20.8915 14.2935 20.7089 14.5011 20.5012C14.7088 20.2935 14.8914 19.9777 15.0298 19.4241C15.1411 18.9789 15.5411 18.6667 15.9999 18.6667Z" fill="white"/>
</svg>
