<svg width="36" height="36" viewBox="0 0 36 36" fill="none" xmlns="http://www.w3.org/2000/svg">
<path opacity="0.4" d="M26.2955 11.655C26.1905 11.64 26.0855 11.64 25.9805 11.655C23.6555 11.58 21.8105 9.675 21.8105 7.335C21.8105 4.95 23.7455 3 26.1455 3C28.5305 3 30.4805 4.935 30.4805 7.335C30.4655 9.675 28.6205 11.58 26.2955 11.655Z" fill="white"/>
<path opacity="0.4" d="M31.1854 22.0496C29.5054 23.1746 27.1504 23.5946 24.9754 23.3096C25.5454 22.0796 25.8454 20.7146 25.8604 19.2746C25.8604 17.7746 25.5304 16.3496 24.9004 15.1046C27.1204 14.8046 29.4754 15.2246 31.1704 16.3496C33.5404 17.9096 33.5404 20.4746 31.1854 22.0496Z" fill="white"/>
<path opacity="0.4" d="M9.65961 11.655C9.76461 11.64 9.86961 11.64 9.97461 11.655C12.2996 11.58 14.1446 9.675 14.1446 7.335C14.1446 4.95 12.2096 3 9.80961 3C7.42461 3 5.47461 4.935 5.47461 7.335C5.48961 9.675 7.33461 11.58 9.65961 11.655Z" fill="white"/>
<path opacity="0.4" d="M9.82469 19.2749C9.82469 20.7299 10.1397 22.1099 10.7097 23.3549C8.59469 23.5799 6.38969 23.1299 4.76969 22.0649C2.39969 20.4899 2.39969 17.9249 4.76969 16.3499C6.37469 15.2699 8.63969 14.8349 10.7697 15.0749C10.1547 16.3349 9.82469 17.7599 9.82469 19.2749Z" fill="white"/>
<path d="M18.1792 23.805C18.0592 23.79 17.9242 23.79 17.7892 23.805C15.0292 23.715 12.8242 21.45 12.8242 18.66C12.8242 15.81 15.1192 13.5 17.9842 13.5C20.8342 13.5 23.1442 15.81 23.1442 18.66C23.1442 21.45 20.9542 23.715 18.1792 23.805Z" fill="white"/>
<path d="M13.3042 26.91C11.0392 28.425 11.0392 30.915 13.3042 32.415C15.8842 34.14 20.1142 34.14 22.6942 32.415C24.9592 30.9 24.9592 28.41 22.6942 26.91C20.1292 25.185 15.8992 25.185 13.3042 26.91Z" fill="white"/>
</svg>
