<svg width="32" height="32" viewBox="0 0 32 32" fill="none" xmlns="http://www.w3.org/2000/svg">
<path opacity="0.4" d="M11.9993 2.66699C8.50602 2.66699 5.66602 5.50699 5.66602 9.00033C5.66602 12.427 8.34602 15.2003 11.8393 15.3203C11.946 15.307 12.0527 15.307 12.1327 15.3203C12.1594 15.3203 12.1727 15.3203 12.1993 15.3203C12.2127 15.3203 12.2127 15.3203 12.226 15.3203C15.6393 15.2003 18.3194 12.427 18.3327 9.00033C18.3327 5.50699 15.4927 2.66699 11.9993 2.66699Z" fill="white"/>
<path d="M18.7733 18.8668C15.0533 16.3868 8.98661 16.3868 5.23995 18.8668C3.54661 20.0002 2.61328 21.5335 2.61328 23.1735C2.61328 24.8135 3.54661 26.3335 5.22661 27.4535C7.09328 28.7068 9.54661 29.3335 11.9999 29.3335C14.4533 29.3335 16.9066 28.7068 18.7733 27.4535C20.4533 26.3202 21.3866 24.8002 21.3866 23.1468C21.3733 21.5068 20.4533 19.9868 18.7733 18.8668Z" fill="white"/>
<path opacity="0.4" d="M26.6525 9.78713C26.8658 12.3738 25.0258 14.6405 22.4792 14.9471C22.4658 14.9471 22.4658 14.9471 22.4525 14.9471H22.4125C22.3325 14.9471 22.2525 14.9471 22.1858 14.9738C20.8925 15.0405 19.7058 14.6271 18.8125 13.8671C20.1858 12.6405 20.9725 10.8005 20.8125 8.80046C20.7192 7.72046 20.3458 6.73379 19.7858 5.89379C20.2925 5.64046 20.8792 5.48046 21.4792 5.42713C24.0925 5.20046 26.4258 7.14713 26.6525 9.78713Z" fill="white"/>
<path d="M29.321 22.1199C29.2143 23.4132 28.3876 24.5332 27.001 25.2932C25.6676 26.0265 23.9876 26.3732 22.321 26.3332C23.281 25.4665 23.841 24.3865 23.9476 23.2399C24.081 21.5865 23.2943 19.9999 21.721 18.7332C20.8276 18.0265 19.7876 17.4665 18.6543 17.0532C21.601 16.1999 25.3076 16.7732 27.5876 18.6132C28.8143 19.5999 29.441 20.8399 29.321 22.1199Z" fill="white"/>
</svg>
