<svg width="27" height="27" viewBox="0 0 27 27" fill="none" xmlns="http://www.w3.org/2000/svg">
<path opacity="0.4" d="M16.875 4.5H10.125C7.02 4.5 4.5 7.02 4.5 10.125V16.875C4.5 19.98 7.02 22.5 10.125 22.5H16.875C19.98 22.5 22.5 19.98 22.5 16.875V10.125C22.5 7.02 19.98 4.5 16.875 4.5ZM19.4175 16.0425C19.4175 17.91 17.91 19.4175 16.0425 19.4175H10.9575C9.09 19.4175 7.5825 17.91 7.5825 16.0425V10.9575C7.5825 9.09 9.09 7.5825 10.9575 7.5825H16.0312C17.8987 7.5825 19.4062 9.09 19.4062 10.9575V16.0425H19.4175Z" fill="white"/>
<path d="M10.1925 3.09375V4.5H10.125C9.5625 4.5 9.0225 4.57875 8.505 4.73625V3.09375C8.505 2.6325 8.87626 2.25 9.34876 2.25C9.81001 2.25 10.1925 2.6325 10.1925 3.09375Z" fill="white"/>
<path d="M14.3438 3.09375V4.5H12.6562V3.09375C12.6562 2.6325 13.0388 2.25 13.5 2.25C13.9612 2.25 14.3438 2.6325 14.3438 3.09375Z" fill="white"/>
<path d="M18.5062 3.09375V4.73625C17.9887 4.57875 17.4375 4.5 16.875 4.5H16.8187V3.09375C16.8187 2.6325 17.2012 2.25 17.6625 2.25C18.1237 2.25 18.5062 2.6325 18.5062 3.09375Z" fill="white"/>
<path d="M24.75 9.3374C24.75 9.8099 24.3788 10.1812 23.9063 10.1812H22.5V10.1249C22.5 9.5624 22.4213 9.01115 22.2638 8.49365H23.9063C24.3788 8.49365 24.75 8.87615 24.75 9.3374Z" fill="white"/>
<path d="M24.75 13.5C24.75 13.9612 24.3787 14.3438 23.9062 14.3438H22.5V12.6562H23.9062C24.3787 12.6562 24.75 13.0275 24.75 13.5Z" fill="white"/>
<path d="M24.75 17.6626C24.75 18.1238 24.3788 18.5063 23.9063 18.5063H22.2638C22.4213 17.9888 22.5 17.4376 22.5 16.8751V16.8188H23.9063C24.3788 16.8188 24.75 17.1901 24.75 17.6626Z" fill="white"/>
<path d="M18.5062 22.2637V23.9062C18.5062 24.3674 18.1237 24.7499 17.6625 24.7499C17.2012 24.7499 16.8187 24.3674 16.8187 23.9062V22.4999H16.875C17.4375 22.4999 17.9887 22.4212 18.5062 22.2637Z" fill="white"/>
<path d="M14.355 22.5V23.9062C14.355 24.3675 13.9725 24.75 13.5112 24.75C13.0387 24.75 12.6675 24.3675 12.6675 23.9062V22.5H14.355Z" fill="white"/>
<path d="M10.1925 22.4999V23.9062C10.1925 24.3674 9.81001 24.7499 9.34876 24.7499C8.87626 24.7499 8.505 24.3674 8.505 23.9062V22.2637C9.0225 22.4212 9.5625 22.4999 10.125 22.4999H10.1925Z" fill="white"/>
<path d="M4.73625 8.49365C4.57875 9.01115 4.5 9.5624 4.5 10.1249V10.1812H3.09375C2.6325 10.1812 2.25 9.8099 2.25 9.3374C2.25 8.87615 2.6325 8.49365 3.09375 8.49365H4.73625V8.49365Z" fill="white"/>
<path d="M4.5 12.6562V14.3438H3.09375C2.6325 14.3438 2.25 13.9612 2.25 13.5C2.25 13.0275 2.6325 12.6562 3.09375 12.6562H4.5Z" fill="white"/>
<path d="M4.73625 18.5063H3.09375C2.6325 18.5063 2.25 18.1238 2.25 17.6626C2.25 17.1901 2.6325 16.8188 3.09375 16.8188H4.5V16.8751C4.5 17.4376 4.57875 17.9888 4.73625 18.5063Z" fill="white"/>
<path d="M16.0425 7.58252H10.9575C9.09002 7.58252 7.58252 9.09002 7.58252 10.9575V16.0313C7.58252 17.8988 9.09002 19.4063 10.9575 19.4063H16.0313C17.8988 19.4063 19.4063 17.8988 19.4063 16.0313V10.9575C19.4175 9.10127 17.8988 7.58252 16.0425 7.58252ZM15.2888 14.67L14.2313 16.515C14.0738 16.785 13.7925 16.9425 13.5 16.9425C13.3538 16.9425 13.2075 16.9088 13.0838 16.83C12.6788 16.5938 12.5438 16.0763 12.7688 15.6825L13.5338 14.355H12.87C12.33 14.355 11.8913 14.1188 11.655 13.7138C11.4188 13.3088 11.4413 12.8025 11.7 12.3413L12.7575 10.4963C12.9938 10.0913 13.5113 9.95627 13.905 10.1813C14.31 10.4175 14.445 10.935 14.22 11.3288L13.455 12.6563H14.1188C14.6588 12.6563 15.0975 12.8925 15.3338 13.2975C15.5813 13.7025 15.5588 14.1975 15.2888 14.67Z" fill="white"/>
</svg>
