<svg width="30" height="30" viewBox="0 0 30 30" fill="none" xmlns="http://www.w3.org/2000/svg">
<path opacity="0.4" d="M23.3801 7.74053C22.1143 5.18466 19.668 3.29818 16.8322 2.67747C13.8625 2.02025 10.8198 2.72615 8.4952 4.60046C6.15841 6.46259 4.83179 9.24971 4.83179 12.2316C4.83179 15.3838 6.71826 18.6821 9.56623 20.5929V21.6031C9.55406 21.9439 9.54189 22.4672 9.9557 22.8932C10.3817 23.3313 11.0146 23.38 11.5136 23.38H17.7572C18.4144 23.38 18.9134 23.1975 19.2542 22.8567C19.7167 22.382 19.7045 21.7735 19.6923 21.4449V20.5929C23.4653 18.0492 25.8386 12.6819 23.3801 7.74053Z" fill="white"/>
<path d="M18.5726 26.7758C18.4996 26.7758 18.4144 26.7636 18.3414 26.7393C15.8951 26.0455 13.327 26.0455 10.8807 26.7393C10.4304 26.861 9.95571 26.6054 9.834 26.1551C9.70012 25.7047 9.96788 25.2301 10.4182 25.1084C13.1688 24.3294 16.0655 24.3294 18.8161 25.1084C19.2664 25.2422 19.5341 25.7047 19.4003 26.1551C19.2785 26.5324 18.9378 26.7758 18.5726 26.7758Z" fill="white"/>
<path d="M14.605 16.8565C14.4468 16.8565 14.2886 16.82 14.1547 16.7348C13.7165 16.4792 13.5705 15.9194 13.8139 15.4934L14.8484 13.6921H13.8261C13.2175 13.6921 12.7185 13.4243 12.4508 12.974C12.183 12.5115 12.2074 11.9517 12.5116 11.4162L13.8139 9.15238C14.0695 8.71423 14.6294 8.56818 15.0553 8.8116C15.4935 9.06718 15.6395 9.62704 15.3961 10.053L14.3616 11.8665H15.3839C15.9925 11.8665 16.4915 12.1342 16.7592 12.5845C17.027 13.047 17.0027 13.6069 16.6984 14.1424L15.3961 16.4062C15.2257 16.6983 14.9215 16.8565 14.605 16.8565Z" fill="white"/>
</svg>
