<svg width="57" height="61" viewBox="0 0 57 61" fill="none" xmlns="http://www.w3.org/2000/svg">
<path fill-rule="evenodd" clip-rule="evenodd" d="M42.6788 29.9725H13.3998V46.6333C13.3998 47.2247 12.9583 47.7058 12.4135 47.7058C11.8687 47.7058 11.4272 47.2318 11.4272 46.6333V29.9725H8.23628C7.69243 29.9725 7.25 29.4924 7.25 28.9002C7.25 28.308 7.68612 27.8276 8.23628 27.8276H12.4135L47.854 27.8281C48.3977 27.8281 48.8401 28.3083 48.8401 28.9007C48.8401 29.4932 48.3977 29.9728 47.854 29.9728H44.64V46.634C44.64 47.2244 44.2104 47.7061 43.6651 47.7061C43.1199 47.7061 42.6788 47.226 42.6788 46.6335V29.9725Z" fill="#022B52"/>
<path fill-rule="evenodd" clip-rule="evenodd" d="M41.0981 27.0184H28.7597C28.2159 27.0184 27.7734 26.5383 27.7734 25.9459V17.1949C27.7734 16.6035 28.2149 16.1223 28.7597 16.1223H41.0981C41.6419 16.1226 42.0844 16.6027 42.0844 17.1952V25.9464C42.0844 26.5386 41.6419 27.0184 41.0981 27.0184ZM29.7458 24.8862H40.1235V18.2677H29.7458V24.8862Z" fill="#022B52"/>
<path fill-rule="evenodd" clip-rule="evenodd" d="M31.51 27.0184H38.3584V27.828H31.5098V27.0184H31.51Z" fill="#022B52"/>
<path fill-rule="evenodd" clip-rule="evenodd" d="M26.568 29.9727V33.9275H13.4004V29.9727H26.568ZM20.119 32.3016H18.3271C18.0305 32.3016 17.7791 32.0408 17.7791 31.7056C17.7791 31.3703 18.0186 31.1095 18.3271 31.1095L20.119 31.1101C20.4156 31.1101 20.6671 31.3706 20.6671 31.7061C20.6671 32.0416 20.4159 32.3016 20.119 32.3016Z" fill="#022B52"/>
<path fill-rule="evenodd" clip-rule="evenodd" d="M13.4004 35.119H26.568V39.5504H13.4004V35.119ZM20.1188 37.9367H18.3269C18.0303 37.9367 17.7788 37.6762 17.7788 37.3407C17.7788 37.0052 18.0184 36.7447 18.3269 36.7447H20.1188C20.4156 36.7449 20.6669 37.0057 20.6669 37.3409C20.6669 37.6762 20.4156 37.9365 20.1188 37.9365V37.9367Z" fill="#022B52"/>
<path fill-rule="evenodd" clip-rule="evenodd" d="M26.0199 46.3649H13.4004V40.7417H26.568V45.7691C26.5563 46.1044 26.3167 46.3651 26.0199 46.3651V46.3649ZM20.1188 43.5596H18.3269C18.0303 43.5596 17.7788 43.2991 17.7788 42.9636C17.7788 42.6281 18.0184 42.3676 18.3269 42.3676H20.1188C20.4154 42.3676 20.6669 42.6281 20.6669 42.9636C20.6669 43.2991 20.4156 43.5596 20.1188 43.5596Z" fill="#022B52"/>
<path fill-rule="evenodd" clip-rule="evenodd" d="M22.0585 16.9392H10.3593C9.81547 16.9392 9.37305 16.4591 9.37305 15.8669C9.37305 15.2747 9.80916 14.7943 10.3593 14.7943H22.0585C22.6023 14.7946 23.0448 15.2747 23.0448 15.8671C23.0448 16.4596 22.6023 16.9392 22.0585 16.9392Z" fill="#022B52"/>
<path fill-rule="evenodd" clip-rule="evenodd" d="M11.125 14.7943V8.13362C11.125 7.81083 11.3646 7.5376 11.6731 7.5376L13.827 7.53836C13.5311 7.5531 13.3049 7.81998 13.3049 8.13362V14.7946H11.125V14.7943Z" fill="#022B52"/>
<path fill-rule="evenodd" clip-rule="evenodd" d="M13.3047 14.7943V8.13337C13.3047 7.81084 13.5445 7.53735 13.8528 7.53735L16.0443 7.53812C16.3409 7.53812 16.5924 7.79864 16.5924 8.13414V14.7943H13.3049H13.3047Z" fill="#022B52"/>
<path fill-rule="evenodd" clip-rule="evenodd" d="M17.8055 14.7945L16.5929 11.6978V8.13435C16.5929 8.05454 16.5787 7.9788 16.5527 7.91018L17.8368 7.31517C18.1107 7.19114 18.4304 7.32737 18.5445 7.62551L21.3294 14.7379C21.3367 14.7567 21.343 14.7757 21.3484 14.7948H17.8057L17.8055 14.7945Z" fill="#022B52"/>
<path fill-rule="evenodd" clip-rule="evenodd" d="M13.3047 27.8276V24.5308C13.3047 24.208 13.5445 23.9348 13.8528 23.9348H18.8178C19.1144 23.9351 19.3659 24.1958 19.3659 24.5311V27.8276H13.3047Z" fill="#022B52"/>
</svg>
