<svg width="68" height="68" viewBox="0 0 68 68" fill="none" xmlns="http://www.w3.org/2000/svg">
<circle cx="34" cy="34" r="34" fill="#18D6D9" fill-opacity="0.1"/>
<circle cx="34" cy="34" r="28" fill="#18D6D9" fill-opacity="0.1"/>
<circle cx="33.5" cy="33.5" r="21.5" fill="#18D6D9" fill-opacity="0.1"/>
<path fill-rule="evenodd" clip-rule="evenodd" d="M44.5222 32.2721L43.4236 39.2309C43.0871 41.3628 42.9188 42.4286 42.2803 43.1533C42.0728 43.3887 41.8331 43.5936 41.5682 43.7618C40.7528 44.2794 39.6738 44.2794 37.5155 44.2794H29.4854C27.3272 44.2794 26.2481 44.2794 25.4328 43.7618C25.1678 43.5936 24.9281 43.3887 24.7206 43.1533C24.0822 42.4286 23.9139 41.3628 23.5773 39.2309L22.4789 32.2732C22.0004 29.2427 21.7612 27.7274 22.0471 27.1328C22.512 26.1663 23.6267 25.7009 24.6408 26.0498C25.2647 26.2645 26.174 27.5 27.9927 29.9709C28.1253 30.1511 28.1916 30.2411 28.2602 30.2738C28.3711 30.3265 28.503 30.3068 28.5936 30.224C28.6497 30.1728 28.6868 30.0672 28.7609 29.8562L29.9095 26.5873C31.2246 22.8442 31.8822 20.9727 32.9843 20.6953C33.3232 20.61 33.6778 20.61 34.0166 20.6952C35.1187 20.9726 35.7763 22.8442 37.0916 26.5873L38.2391 29.8533C38.3133 30.0644 38.3504 30.17 38.4065 30.2212C38.4971 30.304 38.6288 30.3237 38.7396 30.2711C38.8084 30.2385 38.8747 30.1485 39.0074 29.9682C40.8274 27.4975 41.7375 26.262 42.3621 26.0477C43.3754 25.7 44.4888 26.1651 44.9536 27.1304C45.2401 27.7253 45.0007 29.2409 44.5222 32.2721ZM33.5001 33.4063C31.6648 33.4063 30.1771 34.894 30.1771 36.7292C30.1771 38.5644 31.6648 40.0521 33.5001 40.0521C35.3353 40.0521 36.823 38.5644 36.823 36.7292C36.823 34.894 35.3353 33.4063 33.5001 33.4063Z" fill="white"/>
</svg>
