<svg width="56" height="56" viewBox="0 0 56 56" fill="none" xmlns="http://www.w3.org/2000/svg">
<rect width="56" height="56" rx="28" fill="#0063C6" fill-opacity="0.16"/>
<g clip-path="url(#clip0_1002_10296)">
<g clip-path="url(#clip1_1002_10296)">
<path d="M27.9999 24.667C26.9277 24.6673 25.8995 25.0933 25.1414 25.8515C24.3832 26.6096 23.9572 27.6378 23.9569 28.71C23.954 29.2418 24.0566 29.7688 24.2587 30.2606C24.4609 30.7525 24.7586 31.1993 25.1346 31.5754C25.5106 31.9514 25.9575 32.2491 26.4493 32.4512C26.9411 32.6533 27.4682 32.7559 27.9999 32.753C29.0721 32.7528 30.1003 32.3267 30.8585 31.5686C31.6166 30.8104 32.0427 29.7822 32.0429 28.71C32.0429 26.496 30.2149 24.667 27.9999 24.667ZM27.9999 31.347C27.6535 31.3475 27.3103 31.2797 26.9902 31.1474C26.67 31.015 26.3791 30.8208 26.1341 30.5758C25.8891 30.3309 25.6949 30.0399 25.5626 29.7198C25.4302 29.3996 25.3624 29.0565 25.3629 28.71C25.3629 27.27 26.5229 26.11 27.9999 26.11C28.3418 26.1092 28.6804 26.176 28.9964 26.3064C29.3123 26.4368 29.5995 26.6283 29.8412 26.87C30.083 27.1117 30.2746 27.3987 30.4052 27.7146C30.5357 28.0306 30.6026 28.3692 30.6019 28.711C30.6019 30.188 29.4419 31.347 27.9999 31.347ZM33.1329 24.527C33.1336 24.4021 33.1095 24.2782 33.062 24.1627C33.0145 24.0471 32.9445 23.9421 32.8562 23.8538C32.7678 23.7654 32.6628 23.6955 32.5473 23.648C32.4317 23.6005 32.3079 23.5764 32.1829 23.577C32.0581 23.5765 31.9343 23.6007 31.8189 23.6483C31.7035 23.6958 31.5986 23.7658 31.5103 23.8541C31.4221 23.9425 31.3522 24.0474 31.3048 24.1629C31.2573 24.2784 31.2333 24.4022 31.2339 24.527C31.2339 25.054 31.6559 25.477 32.1839 25.477C32.7109 25.477 33.1329 25.054 33.1329 24.527ZM35.8049 25.477C35.7349 24.21 35.4529 23.085 34.5389 22.171C33.6249 21.257 32.4999 20.976 31.2339 20.906C29.9339 20.836 26.0309 20.836 24.7299 20.906C23.4649 20.976 22.3749 21.257 21.4259 22.171C20.5119 23.085 20.2299 24.211 20.1599 25.476C20.0899 26.776 20.0899 30.679 20.1599 31.98C20.2299 33.246 20.5119 34.335 21.4259 35.285C22.3749 36.199 23.4649 36.48 24.7299 36.55C26.0309 36.62 29.9339 36.62 31.2339 36.55C32.4999 36.48 33.6249 36.199 34.5389 35.285C35.4529 34.335 35.7339 33.245 35.8049 31.98C35.8749 30.68 35.8749 26.777 35.8049 25.476V25.477ZM34.1169 33.351C33.8709 34.054 33.3089 34.581 32.6409 34.863C31.5859 35.285 29.1249 35.179 27.9999 35.179C26.8399 35.179 24.3789 35.285 23.3599 34.863C23.0172 34.729 22.7059 34.5255 22.4457 34.2652C22.1855 34.005 21.9819 33.6937 21.8479 33.351C21.4259 32.331 21.5309 29.871 21.5309 28.711C21.5309 27.585 21.4259 25.125 21.8479 24.07C21.9881 23.7352 22.1941 23.432 22.4537 23.1783C22.7132 22.9246 23.021 22.7256 23.3589 22.593C24.3799 22.171 26.8399 22.277 27.9999 22.277C29.1249 22.277 31.5859 22.171 32.6399 22.593C33.3089 22.839 33.8359 23.402 34.1169 24.07C34.5389 25.125 34.4339 27.585 34.4339 28.71C34.4339 29.87 34.5389 32.331 34.1169 33.351Z" fill="#0063C6"/>
</g>
</g>
<defs>
<clipPath id="clip0_1002_10296">
<rect width="16" height="17" fill="white" transform="translate(20 20)"/>
</clipPath>
<clipPath id="clip1_1002_10296">
<rect width="16" height="17" fill="white" transform="translate(20 20)"/>
</clipPath>
</defs>
</svg>
