<svg width="21" height="21" viewBox="0 0 21 21" fill="none" xmlns="http://www.w3.org/2000/svg">
<path fill-rule="evenodd" clip-rule="evenodd" d="M10.1562 20.3125C15.7654 20.3125 20.3125 15.7654 20.3125 10.1562C20.3125 4.5471 15.7654 0 10.1562 0C4.5471 0 0 4.5471 0 10.1562C0 15.7654 4.5471 20.3125 10.1562 20.3125ZM13.8336 8.62531C14.1388 8.32021 14.1388 7.82558 13.8336 7.52049C13.5285 7.2154 13.034 7.2154 12.7289 7.52049L9.11458 11.1347L7.58368 9.60385C7.27858 9.29875 6.78392 9.29875 6.47882 9.60385C6.17373 9.90896 6.17373 10.4035 6.47882 10.7086L8.56219 12.792C8.86729 13.0971 9.36187 13.0971 9.66698 12.792L13.8336 8.62531Z" fill="white"/>
</svg>
