<svg width="56" height="56" viewBox="0 0 56 56" fill="none" xmlns="http://www.w3.org/2000/svg">
<rect width="56" height="56" rx="28" fill="#0063C6" fill-opacity="0.16"/>
<g clip-path="url(#clip0_1002_10300)">
<g clip-path="url(#clip1_1002_10300)">
<path d="M37.6949 23.383C38.1649 25.023 38.1649 28.539 38.1649 28.539C38.1649 28.539 38.1649 32.016 37.6949 33.695C37.5789 34.1468 37.3436 34.5591 37.0138 34.8889C36.684 35.2187 36.2717 35.454 35.8199 35.57C34.1399 36 27.4999 36 27.4999 36C27.4999 36 20.8199 36 19.1399 35.57C18.6884 35.4537 18.2763 35.2184 17.9467 34.8886C17.6171 34.5588 17.382 34.1466 17.2659 33.695C16.7959 32.015 16.7959 28.539 16.7959 28.539C16.7959 28.539 16.7959 25.023 17.2659 23.383C17.3808 22.9266 17.6148 22.5089 17.9441 22.1726C18.2733 21.8363 18.686 21.5935 19.1399 21.469C20.8199 21 27.4999 21 27.4999 21C27.4999 21 34.1399 21 35.8199 21.469C36.7189 21.703 37.4599 22.445 37.6949 23.383ZM25.3119 31.703L30.8599 28.54L25.3129 25.375L25.3119 31.703Z" fill="#0063C6"/>
</g>
</g>
<defs>
<clipPath id="clip0_1002_10300">
<rect width="23" height="15" fill="white" transform="translate(16 21)"/>
</clipPath>
<clipPath id="clip1_1002_10300">
<rect width="23" height="15" fill="white" transform="translate(16 21)"/>
</clipPath>
</defs>
</svg>
