<svg width="20" height="20" viewBox="0 0 20 20" fill="none" xmlns="http://www.w3.org/2000/svg">
<path opacity="0.4" d="M18.0515 8.69999L17.2348 12.1833C16.5348 15.1917 15.1515 16.4083 12.5515 16.1583C12.1348 16.125 11.6848 16.05 11.2015 15.9333L9.80145 15.6C6.32645 14.775 5.25145 13.0583 6.06812 9.57499L6.88479 6.08332C7.05145 5.37499 7.25145 4.75832 7.50145 4.24999C8.47645 2.23332 10.1348 1.69165 12.9181 2.34999L14.3098 2.67499C17.8015 3.49165 18.8681 5.21665 18.0515 8.69999Z" fill="#022B52"/>
<path d="M12.5513 16.1583C12.0346 16.5083 11.3846 16.8 10.5929 17.0583L9.27626 17.4917C5.96793 18.5583 4.22626 17.6667 3.15126 14.3583L2.08459 11.0667C1.01793 7.75833 1.90126 6.00833 5.20959 4.94167L6.52626 4.50833C6.86793 4.4 7.19293 4.30833 7.50126 4.25C7.25126 4.75833 7.05126 5.375 6.88459 6.08333L6.06793 9.575C5.25126 13.0583 6.32626 14.775 9.80126 15.6L11.2013 15.9333C11.6846 16.05 12.1346 16.125 12.5513 16.1583Z" fill="#022B52"/>
<path d="M14.5751 8.75833C14.5251 8.75833 14.4751 8.75 14.4168 8.74166L10.3751 7.71666C10.0418 7.63333 9.84181 7.29166 9.92514 6.95833C10.0085 6.625 10.3501 6.425 10.6835 6.50833L14.7251 7.53333C15.0585 7.61666 15.2585 7.95833 15.1751 8.29166C15.1085 8.56666 14.8501 8.75833 14.5751 8.75833Z" fill="#022B52"/>
<path d="M12.1343 11.575C12.0843 11.575 12.0343 11.5666 11.9759 11.5583L9.55092 10.9416C9.21759 10.8583 9.01759 10.5166 9.10092 10.1833C9.18425 9.84997 9.52592 9.64997 9.85925 9.73331L12.2843 10.35C12.6176 10.4333 12.8176 10.775 12.7343 11.1083C12.6676 11.3916 12.4176 11.575 12.1343 11.575Z" fill="#022B52"/>
</svg>
