<svg width="20" height="20" viewBox="0 0 20 20" fill="none" xmlns="http://www.w3.org/2000/svg">
<path opacity="0.4" d="M12.918 10.9583H11.1096C9.6263 10.9583 8.41797 9.75831 8.41797 8.26665V6.45831C8.41797 6.11665 8.14297 5.83331 7.79297 5.83331H5.1513C3.2263 5.83331 1.66797 7.08331 1.66797 9.31665V14.85C1.66797 17.0833 3.2263 18.3333 5.1513 18.3333H10.0596C11.9846 18.3333 13.543 17.0833 13.543 14.85V11.5833C13.543 11.2333 13.2596 10.9583 12.918 10.9583Z" fill="#022B52"/>
<path d="M14.8482 1.66669H13.2065H12.2982H9.93984C8.05651 1.66669 6.53151 2.86669 6.46484 5.00835C6.51484 5.00835 6.55651 5.00002 6.60651 5.00002H8.96484H9.87318H11.5148C13.4398 5.00002 14.9982 6.25002 14.9982 8.48335V10.125V12.3834V14.025C14.9982 14.075 14.9898 14.1167 14.9898 14.1584C16.8482 14.1 18.3315 12.8667 18.3315 10.6917V9.05002V6.79169V5.15002C18.3315 2.91669 16.7732 1.66669 14.8482 1.66669Z" fill="#022B52"/>
<path d="M9.98516 5.95831C9.72682 5.69998 9.28516 5.87498 9.28516 6.23331V8.41664C9.28516 9.33331 10.0602 10.0833 11.0102 10.0833C11.6018 10.0916 12.4268 10.0916 13.1352 10.0916C13.4935 10.0916 13.6768 9.67498 13.4268 9.42498C12.5185 8.51664 10.9018 6.89164 9.98516 5.95831Z" fill="#022B52"/>
</svg>
