<svg width="20" height="20" viewBox="0 0 20 20" fill="none" xmlns="http://www.w3.org/2000/svg">
<path opacity="0.4" d="M14.168 15.3584H10.8346L7.12629 17.825C6.57629 18.1917 5.83464 17.8 5.83464 17.1334V15.3584C3.33464 15.3584 1.66797 13.6917 1.66797 11.1917V6.19169C1.66797 3.69169 3.33464 2.02502 5.83464 2.02502H14.168C16.668 2.02502 18.3346 3.69169 18.3346 6.19169V11.1917C18.3346 13.6917 16.668 15.3584 14.168 15.3584Z" fill="#022B52"/>
<path d="M10.0005 10.0917C9.65883 10.0917 9.3755 9.80834 9.3755 9.46667V9.29171C9.3755 8.32504 10.0838 7.85003 10.3505 7.6667C10.6588 7.45836 10.7588 7.3167 10.7588 7.10004C10.7588 6.68337 10.4172 6.34167 10.0005 6.34167C9.58383 6.34167 9.24219 6.68337 9.24219 7.10004C9.24219 7.4417 8.95885 7.72504 8.61719 7.72504C8.27552 7.72504 7.99219 7.4417 7.99219 7.10004C7.99219 5.9917 8.89217 5.09167 10.0005 5.09167C11.1088 5.09167 12.0088 5.9917 12.0088 7.10004C12.0088 8.05004 11.3088 8.52502 11.0505 8.70002C10.7255 8.91669 10.6255 9.05837 10.6255 9.29171V9.46667C10.6255 9.81667 10.3422 10.0917 10.0005 10.0917Z" fill="#022B52"/>
<path d="M10 12.1666C9.65 12.1666 9.375 11.8833 9.375 11.5416C9.375 11.2 9.65833 10.9166 10 10.9166C10.3417 10.9166 10.625 11.2 10.625 11.5416C10.625 11.8833 10.35 12.1666 10 12.1666Z" fill="#022B52"/>
</svg>
