<svg width="20" height="20" viewBox="0 0 20 20" fill="none" xmlns="http://www.w3.org/2000/svg">
<path opacity="0.4" d="M14.1667 15.3584H10.8334L7.12507 17.825C6.57507 18.1917 5.83341 17.8 5.83341 17.1334V15.3584C3.33341 15.3584 1.66675 13.6917 1.66675 11.1917V6.19169C1.66675 3.69169 3.33341 2.02502 5.83341 2.02502H14.1667C16.6667 2.02502 18.3334 3.69169 18.3334 6.19169V11.1917C18.3334 13.6917 16.6667 15.3584 14.1667 15.3584Z" fill="white"/>
<path d="M10 10.0917C9.65834 10.0917 9.37501 9.80834 9.37501 9.46667V9.29171C9.37501 8.32504 10.0833 7.85003 10.35 7.6667C10.6583 7.45836 10.7583 7.3167 10.7583 7.10004C10.7583 6.68337 10.4167 6.34167 10 6.34167C9.58334 6.34167 9.2417 6.68337 9.2417 7.10004C9.2417 7.4417 8.95837 7.72504 8.6167 7.72504C8.27503 7.72504 7.9917 7.4417 7.9917 7.10004C7.9917 5.9917 8.89168 5.09167 10 5.09167C11.1083 5.09167 12.0083 5.9917 12.0083 7.10004C12.0083 8.05004 11.3084 8.52502 11.05 8.70002C10.725 8.91669 10.625 9.05837 10.625 9.29171V9.46667C10.625 9.81667 10.3417 10.0917 10 10.0917Z" fill="white"/>
<path d="M10 12.1666C9.65 12.1666 9.375 11.8833 9.375 11.5416C9.375 11.2 9.65833 10.9166 10 10.9166C10.3417 10.9166 10.625 11.2 10.625 11.5416C10.625 11.8833 10.35 12.1666 10 12.1666Z" fill="white"/>
</svg>
