<svg width="20" height="20" viewBox="0 0 20 20" fill="none" xmlns="http://www.w3.org/2000/svg">
<path opacity="0.4" d="M14.6089 6.47502C14.5505 6.46669 14.4922 6.46669 14.4339 6.47502C13.1422 6.43336 12.1172 5.37502 12.1172 4.07502C12.1172 2.75002 13.1922 1.66669 14.5255 1.66669C15.8505 1.66669 16.9339 2.74169 16.9339 4.07502C16.9255 5.37502 15.9005 6.43336 14.6089 6.47502Z" fill="#022B52"/>
<path opacity="0.4" d="M17.3237 12.25C16.3904 12.875 15.082 13.1084 13.8737 12.95C14.1904 12.2667 14.357 11.5084 14.3654 10.7084C14.3654 9.87503 14.182 9.08337 13.832 8.3917C15.0654 8.22503 16.3737 8.45835 17.3154 9.08335C18.632 9.95002 18.632 11.375 17.3237 12.25Z" fill="#022B52"/>
<path opacity="0.4" d="M5.36797 6.47502C5.4263 6.46669 5.48464 6.46669 5.54297 6.47502C6.83464 6.43336 7.85963 5.37502 7.85963 4.07502C7.85963 2.75002 6.78463 1.66669 5.4513 1.66669C4.1263 1.66669 3.04297 2.74169 3.04297 4.07502C3.0513 5.37502 4.0763 6.43336 5.36797 6.47502Z" fill="#022B52"/>
<path opacity="0.4" d="M5.45989 10.7083C5.45989 11.5167 5.63489 12.2833 5.95156 12.975C4.77656 13.1 3.55156 12.85 2.65156 12.2583C1.3349 11.3833 1.3349 9.95833 2.65156 9.08333C3.54323 8.48333 4.80156 8.24167 5.9849 8.37501C5.64323 9.07501 5.45989 9.86668 5.45989 10.7083Z" fill="#022B52"/>
<path d="M10.1 13.225C10.0333 13.2167 9.95833 13.2167 9.88333 13.225C8.35 13.175 7.125 11.9167 7.125 10.3667C7.125 8.78334 8.4 7.5 9.99167 7.5C11.575 7.5 12.8583 8.78334 12.8583 10.3667C12.8583 11.9167 11.6417 13.175 10.1 13.225Z" fill="#022B52"/>
<path d="M7.39297 14.95C6.13464 15.7917 6.13464 17.175 7.39297 18.0083C8.8263 18.9667 11.1763 18.9667 12.6096 18.0083C13.868 17.1667 13.868 15.7833 12.6096 14.95C11.1846 13.9917 8.83464 13.9917 7.39297 14.95Z" fill="#022B52"/>
</svg>
