<svg width="20" height="20" viewBox="0 0 20 20" fill="none" xmlns="http://www.w3.org/2000/svg">
<path opacity="0.4" d="M14.6084 6.47496C14.55 6.46663 14.4917 6.46663 14.4334 6.47496C13.1417 6.4333 12.1167 5.37496 12.1167 4.07496C12.1167 2.74996 13.1917 1.66663 14.525 1.66663C15.85 1.66663 16.9334 2.74163 16.9334 4.07496C16.925 5.37496 15.9 6.4333 14.6084 6.47496Z" fill="white"/>
<path opacity="0.4" d="M17.3249 12.25C16.3916 12.875 15.0833 13.1083 13.8749 12.95C14.1916 12.2666 14.3583 11.5083 14.3666 10.7083C14.3666 9.87497 14.1833 9.0833 13.8333 8.39164C15.0666 8.22497 16.3749 8.45829 17.3166 9.08329C18.6333 9.94996 18.6333 11.375 17.3249 12.25Z" fill="white"/>
<path opacity="0.4" d="M5.36675 6.47496C5.42508 6.46663 5.48341 6.46663 5.54175 6.47496C6.83341 6.4333 7.85841 5.37496 7.85841 4.07496C7.85841 2.74996 6.78341 1.66663 5.45008 1.66663C4.12508 1.66663 3.04175 2.74163 3.04175 4.07496C3.05008 5.37496 4.07508 6.4333 5.36675 6.47496Z" fill="white"/>
<path opacity="0.4" d="M5.45843 10.7083C5.45843 11.5167 5.63343 12.2833 5.9501 12.975C4.7751 13.1 3.5501 12.85 2.6501 12.2583C1.33343 11.3833 1.33343 9.95833 2.6501 9.08333C3.54176 8.48333 4.8001 8.24167 5.98343 8.37501C5.64176 9.07501 5.45843 9.86668 5.45843 10.7083Z" fill="white"/>
<path d="M10.1 13.225C10.0333 13.2167 9.95833 13.2167 9.88333 13.225C8.35 13.175 7.125 11.9167 7.125 10.3667C7.125 8.78334 8.4 7.5 9.99167 7.5C11.575 7.5 12.8583 8.78334 12.8583 10.3667C12.8583 11.9167 11.6417 13.175 10.1 13.225Z" fill="white"/>
<path d="M7.39175 14.95C6.13341 15.7916 6.13341 17.1749 7.39175 18.0083C8.82508 18.9666 11.1751 18.9666 12.6084 18.0083C13.8668 17.1666 13.8668 15.7833 12.6084 14.95C11.1834 13.9916 8.83341 13.9916 7.39175 14.95Z" fill="white"/>
</svg>
