<svg width="20" height="20" viewBox="0 0 20 20" fill="none" xmlns="http://www.w3.org/2000/svg">
<path opacity="0.4" d="M18.05 8.70005L17.2333 12.1834C16.5333 15.1917 15.15 16.4084 12.55 16.1584C12.1333 16.125 11.6833 16.05 11.2 15.9334L9.79999 15.6C6.32499 14.775 5.24999 13.0584 6.06665 9.57505L6.88332 6.08338C7.04999 5.37505 7.24999 4.75838 7.49999 4.25005C8.47499 2.23338 10.1333 1.69171 12.9167 2.35005L14.3083 2.67505C17.8 3.49171 18.8667 5.21671 18.05 8.70005Z" fill="white"/>
<path d="M12.55 16.1583C12.0334 16.5083 11.3834 16.8 10.5917 17.0583L9.27504 17.4917C5.96671 18.5583 4.22504 17.6667 3.15004 14.3583L2.08337 11.0667C1.01671 7.75833 1.90004 6.00833 5.20837 4.94167L6.52504 4.50833C6.86671 4.4 7.19171 4.30833 7.50004 4.25C7.25004 4.75833 7.05004 5.375 6.88337 6.08333L6.06671 9.575C5.25004 13.0583 6.32504 14.775 9.80004 15.6L11.2 15.9333C11.6834 16.05 12.1334 16.125 12.55 16.1583Z" fill="white"/>
<path d="M14.5749 8.75839C14.5249 8.75839 14.4749 8.75006 14.4166 8.74172L10.3749 7.71673C10.0416 7.63339 9.84156 7.29173 9.9249 6.95839C10.0082 6.62506 10.3499 6.42506 10.6832 6.50839L14.7249 7.53339C15.0582 7.61672 15.2582 7.95839 15.1749 8.29172C15.1082 8.56672 14.8499 8.75839 14.5749 8.75839Z" fill="white"/>
<path d="M12.1333 11.575C12.0833 11.575 12.0333 11.5667 11.9749 11.5584L9.54994 10.9417C9.21661 10.8584 9.01661 10.5167 9.09994 10.1834C9.18328 9.85003 9.52494 9.65003 9.85828 9.73337L12.2833 10.35C12.6166 10.4334 12.8166 10.775 12.7333 11.1084C12.6666 11.3917 12.4166 11.575 12.1333 11.575Z" fill="white"/>
</svg>
