<svg width="20" height="20" viewBox="0 0 20 20" fill="none" xmlns="http://www.w3.org/2000/svg">
<path opacity="0.4" d="M12.9167 10.9584H11.1084C9.62508 10.9584 8.41675 9.75837 8.41675 8.26671V6.45837C8.41675 6.11671 8.14175 5.83337 7.79175 5.83337H5.15008C3.22508 5.83337 1.66675 7.08337 1.66675 9.31671V14.85C1.66675 17.0834 3.22508 18.3334 5.15008 18.3334H10.0584C11.9834 18.3334 13.5417 17.0834 13.5417 14.85V11.5834C13.5417 11.2334 13.2584 10.9584 12.9167 10.9584Z" fill="white"/>
<path d="M14.8499 1.66663H13.2082H12.2999H9.94155C8.05822 1.66663 6.53322 2.86663 6.46655 5.00829C6.51655 5.00829 6.55822 4.99996 6.60822 4.99996H8.96655H9.87489H11.5166C13.4416 4.99996 14.9999 6.24996 14.9999 8.48329V10.125V12.3833V14.025C14.9999 14.075 14.9916 14.1166 14.9916 14.1583C16.8499 14.1 18.3332 12.8666 18.3332 10.6916V9.04996V6.79163V5.14996C18.3332 2.91663 16.7749 1.66663 14.8499 1.66663Z" fill="white"/>
<path d="M9.98345 5.95837C9.72511 5.70004 9.28345 5.87504 9.28345 6.23337V8.4167C9.28345 9.33337 10.0584 10.0834 11.0084 10.0834C11.6001 10.0917 12.4251 10.0917 13.1334 10.0917C13.4918 10.0917 13.6751 9.67504 13.4251 9.42504C12.5168 8.5167 10.9001 6.8917 9.98345 5.95837Z" fill="white"/>
</svg>
