<svg width="20" height="20" viewBox="0 0 20 20" fill="none" xmlns="http://www.w3.org/2000/svg">
<path opacity="0.4" d="M15.8917 16.5166C15.7334 16.5166 15.575 16.4582 15.45 16.3332C15.2084 16.0916 15.2084 15.6916 15.45 15.4499C18.4584 12.4416 18.4584 7.54993 15.45 4.54993C15.2084 4.30827 15.2084 3.90827 15.45 3.6666C15.6917 3.42493 16.0917 3.42493 16.3334 3.6666C19.825 7.15827 19.825 12.8416 16.3334 16.3332C16.2084 16.4582 16.05 16.5166 15.8917 16.5166Z" fill="white"/>
<path opacity="0.4" d="M4.10827 16.5166C3.94993 16.5166 3.7916 16.4582 3.6666 16.3332C0.174935 12.8416 0.174935 7.15827 3.6666 3.6666C3.90827 3.42493 4.30827 3.42493 4.54993 3.6666C4.7916 3.90827 4.7916 4.30827 4.54993 4.54993C1.5416 7.55827 1.5416 12.4499 4.54993 15.4499C4.7916 15.6916 4.7916 16.0916 4.54993 16.3332C4.42493 16.4582 4.2666 16.5166 4.10827 16.5166Z" fill="white"/>
<path opacity="0.4" d="M9.99997 18.925C8.9583 18.9167 7.96664 18.75 7.04164 18.425C6.71664 18.3083 6.54163 17.95 6.65829 17.625C6.77496 17.3 7.12498 17.125 7.45831 17.2417C8.25831 17.5167 9.10831 17.6667 10.0083 17.6667C10.9 17.6667 11.7583 17.5167 12.55 17.2417C12.875 17.1333 13.2333 17.3 13.35 17.625C13.4666 17.95 13.2916 18.3083 12.9666 18.425C12.0333 18.75 11.0416 18.925 9.99997 18.925Z" fill="white"/>
<path opacity="0.4" d="M12.75 2.78333C12.6833 2.78333 12.6083 2.77496 12.5416 2.74996C11.7416 2.47496 10.8833 2.32495 9.99164 2.32495C9.09998 2.32495 8.24999 2.47496 7.44999 2.74996C7.12499 2.85829 6.76666 2.69166 6.65 2.36666C6.53333 2.04166 6.70832 1.68331 7.03332 1.56664C7.95832 1.24164 8.95831 1.07495 9.99164 1.07495C11.025 1.07495 12.025 1.24164 12.95 1.56664C13.275 1.68331 13.45 2.04166 13.3333 2.36666C13.25 2.62499 13.0083 2.78333 12.75 2.78333Z" fill="white"/>
<path d="M7.2832 10V8.60838C7.2832 6.87505 8.50822 6.1667 10.0082 7.03337L11.2165 7.73339L12.4249 8.43336C13.9249 9.30003 13.9249 10.7167 12.4249 11.5834L11.2165 12.2834L10.0082 12.9834C8.50822 13.85 7.2832 13.1417 7.2832 11.4084V10Z" fill="white"/>
</svg>
