<svg width="20" height="20" viewBox="0 0 20 20" fill="none" xmlns="http://www.w3.org/2000/svg">
<path d="M4.16536 12.5C3.38203 12.5 2.65703 12.775 2.08203 13.2333C1.31536 13.8417 0.832031 14.7833 0.832031 15.8333C0.832031 16.4583 1.00703 17.05 1.31537 17.55C1.89037 18.5167 2.9487 19.1667 4.16536 19.1667C5.00703 19.1667 5.7737 18.8583 6.35704 18.3333C6.61537 18.1167 6.84036 17.85 7.01536 17.55C7.3237 17.05 7.4987 16.4583 7.4987 15.8333C7.4987 13.9917 6.00703 12.5 4.16536 12.5ZM5.89037 15.475L4.11537 17.1166C3.9987 17.225 3.84036 17.2833 3.69036 17.2833C3.53203 17.2833 3.37369 17.225 3.24869 17.1L2.4237 16.275C2.18203 16.0334 2.18203 15.6333 2.4237 15.3916C2.66537 15.15 3.06537 15.15 3.30703 15.3916L3.70703 15.7917L5.04037 14.5583C5.29037 14.325 5.69036 14.3417 5.9237 14.5917C6.15703 14.8417 6.14037 15.2417 5.89037 15.475Z" fill="white"/>
<path opacity="0.4" d="M16.232 10.7917H17.9154V9.59165C17.9154 7.86665 16.507 6.45831 14.782 6.45831H5.21536C3.49036 6.45831 2.08203 7.86665 2.08203 9.59165V13.2333C2.65703 12.775 3.38203 12.5 4.16536 12.5C6.00703 12.5 7.4987 13.9916 7.4987 15.8333C7.4987 16.4583 7.3237 17.05 7.01536 17.55C6.84036 17.85 6.61537 18.1166 6.35704 18.3333H14.782C16.507 18.3333 17.9154 16.925 17.9154 15.2V14.2083H16.332C15.432 14.2083 14.607 13.55 14.532 12.65C14.482 12.125 14.682 11.6333 15.032 11.2916C15.3404 10.975 15.7654 10.7917 16.232 10.7917Z" fill="white"/>
<path d="M12.3737 3.29165V6.4583H5.21536C3.49036 6.4583 2.08203 7.86664 2.08203 9.59164V6.53333C2.08203 5.54166 2.69036 4.65829 3.61536 4.30829L10.232 1.80829C11.2654 1.42496 12.3737 2.18331 12.3737 3.29165Z" fill="white"/>
<path d="M18.8016 11.6417V13.3584C18.8016 13.8167 18.4349 14.1917 17.9683 14.2083H16.335C15.435 14.2083 14.6099 13.55 14.5349 12.65C14.4849 12.125 14.6849 11.6333 15.0349 11.2917C15.3433 10.975 15.7683 10.7917 16.2349 10.7917H17.9683C18.4349 10.8084 18.8016 11.1833 18.8016 11.6417Z" fill="white"/>
<path d="M11.6654 10.625H5.83203C5.49036 10.625 5.20703 10.3417 5.20703 10C5.20703 9.65833 5.49036 9.375 5.83203 9.375H11.6654C12.007 9.375 12.2904 9.65833 12.2904 10C12.2904 10.3417 12.007 10.625 11.6654 10.625Z" fill="white"/>
</svg>
