<svg width="20" height="20" viewBox="0 0 20 20" fill="none" xmlns="http://www.w3.org/2000/svg">
<path opacity="0.4" d="M15.8924 16.5166C15.7341 16.5166 15.5758 16.4583 15.4508 16.3333C15.2091 16.0916 15.2091 15.6916 15.4508 15.45C18.4591 12.4416 18.4591 7.54999 15.4508 4.54999C15.2091 4.30833 15.2091 3.90833 15.4508 3.66666C15.6924 3.425 16.0924 3.425 16.3341 3.66666C19.8258 7.15833 19.8258 12.8416 16.3341 16.3333C16.2091 16.4583 16.0508 16.5166 15.8924 16.5166Z" fill="#022B52"/>
<path opacity="0.4" d="M4.10729 16.5166C3.94896 16.5166 3.79063 16.4583 3.66563 16.3333C0.173958 12.8416 0.173958 7.15833 3.66563 3.66666C3.90729 3.425 4.30729 3.425 4.54896 3.66666C4.79062 3.90833 4.79062 4.30833 4.54896 4.54999C1.54062 7.55833 1.54062 12.45 4.54896 15.45C4.79062 15.6916 4.79062 16.0916 4.54896 16.3333C4.42396 16.4583 4.26562 16.5166 4.10729 16.5166Z" fill="#022B52"/>
<path opacity="0.4" d="M9.99899 18.925C8.95732 18.9167 7.96567 18.75 7.04067 18.425C6.71567 18.3083 6.54065 17.95 6.65732 17.625C6.77398 17.3 7.124 17.125 7.45733 17.2417C8.25733 17.5167 9.10733 17.6667 10.0073 17.6667C10.899 17.6667 11.7573 17.5167 12.549 17.2417C12.874 17.1333 13.2323 17.3 13.349 17.625C13.4656 17.95 13.2907 18.3083 12.9657 18.425C12.0323 18.75 11.0407 18.925 9.99899 18.925Z" fill="#022B52"/>
<path opacity="0.4" d="M12.7495 2.78333C12.6828 2.78333 12.6078 2.77496 12.5412 2.74996C11.7412 2.47496 10.8828 2.32495 9.99116 2.32495C9.09949 2.32495 8.2495 2.47496 7.4495 2.74996C7.1245 2.85829 6.76617 2.69166 6.64951 2.36666C6.53284 2.04166 6.70783 1.68331 7.03283 1.56664C7.95783 1.24164 8.95782 1.07495 9.99116 1.07495C11.0245 1.07495 12.0245 1.24164 12.9495 1.56664C13.2745 1.68331 13.4495 2.04166 13.3328 2.36666C13.2495 2.62499 13.0078 2.78333 12.7495 2.78333Z" fill="#022B52"/>
<path d="M7.28516 10V8.60838C7.28516 6.87505 8.51017 6.1667 10.0102 7.03337L11.2185 7.73339L12.4268 8.43336C13.9268 9.30003 13.9268 10.7167 12.4268 11.5834L11.2185 12.2834L10.0102 12.9834C8.51017 13.85 7.28516 13.1417 7.28516 11.4084V10Z" fill="#022B52"/>
</svg>
