<svg width="31" height="23" viewBox="0 0 31 23" fill="none" xmlns="http://www.w3.org/2000/svg">
<path opacity="0.5" d="M27.3859 20.3092C29.1219 18.5315 30.054 16.5376 30.054 13.3055C30.054 7.618 25.9128 2.52038 19.8905 0L18.3853 2.23925C24.0065 5.17075 25.1054 8.97487 25.5436 11.3734C24.6385 10.9216 23.4536 10.764 22.2923 10.868C19.2517 11.1394 16.8549 13.546 16.8549 16.5376C16.8549 18.046 17.4764 19.4927 18.5828 20.5593C19.6891 21.6259 21.1896 22.2251 22.7541 22.2251C24.5627 22.2251 26.292 21.4289 27.3859 20.3092ZM10.531 20.3092C12.267 18.5315 13.1991 16.5376 13.1991 13.3055C13.1991 7.618 9.05783 2.52038 3.03557 0L1.53042 2.23925C7.15154 5.17075 8.25048 8.97487 8.68871 11.3734C7.7836 10.9216 6.5987 10.764 5.4374 10.868C2.39677 11.1394 -3.8147e-06 13.546 -3.8147e-06 16.5376C-3.8147e-06 18.046 0.621519 19.4927 1.72784 20.5593C2.83416 21.6259 4.33465 22.2251 5.89922 22.2251C7.70775 22.2251 9.43707 21.4289 10.531 20.3092Z" fill="#022B52"/>
</svg>
