<svg width="53" height="53" viewBox="0 0 53 53" fill="none" xmlns="http://www.w3.org/2000/svg">
<path d="M28.3652 7.85471L28.8 10.4178L27.6557 9.82281L26.5115 9.20492L25.3444 9.82281L24.2001 10.4178L24.6349 7.85471L22.7812 6.0468L25.3444 5.68064L26.5115 3.34638L27.6557 5.68064L30.2188 6.0468L28.3652 7.85471Z" fill="#0063C6"/>
<path d="M7 28.8741C18.1678 32.0551 24.8045 49.6536 24.8045 49.6536V21.94C24.8045 21.94 23.3169 15.6009 14.4147 15.4178L7 28.8741Z" fill="#0063C6"/>
<path d="M45.6091 28.8741C35.0134 32.1009 27.8047 49.6536 27.8047 49.6536V21.94C27.8047 21.94 29.2922 15.6009 38.1944 15.4178L45.6091 28.8741Z" fill="#FF0019"/>
</svg>
