<svg width="316" height="72" viewBox="0 0 316 72" fill="none" xmlns="http://www.w3.org/2000/svg">
<g clip-path="url(#clip0_1002_10077)">
<path d="M70.1377 45.4568H71.7855V56.812H70.1377V45.4568Z" fill="#0460B8" stroke="#0460B8" stroke-width="0.215054" stroke-miterlimit="10"/>
<path d="M75.9769 50.4717V56.812H74.3291V48.3941H75.8336L75.941 49.3254C76.55 48.8239 77.2306 48.5015 78.0187 48.3583C78.2694 48.3224 78.5201 48.2866 78.7709 48.2866C79.7739 48.2866 80.5619 48.7165 81.0634 49.5762C81.9948 48.7165 82.9978 48.2866 84.0366 48.2866C85.0754 48.2866 85.7918 48.609 86.2575 49.218C86.7231 49.8269 86.9739 50.8657 86.9739 52.3344V56.8478H85.3261V52.3702C85.3261 50.9732 85.0037 50.1135 84.3231 49.8269C84.1082 49.7195 83.8216 49.6836 83.5351 49.6836C82.8187 49.6836 82.1381 49.9344 81.5291 50.4717V56.8478H79.8813V52.2986C79.8813 51.3314 79.7381 50.6508 79.4515 50.2568C79.1649 49.8627 78.6634 49.6836 77.947 49.6836C77.3022 49.6478 76.6216 49.9344 75.9769 50.4717Z" fill="#0460B8" stroke="#0460B8" stroke-width="0.215054" stroke-miterlimit="10"/>
<path d="M91.4153 60.0717H89.7676V48.3941H91.2362L91.3079 49.3612C91.6303 48.9314 92.1318 48.609 92.8124 48.3941C93.0631 48.3224 93.3497 48.2866 93.6004 48.2866C93.887 48.2866 94.1377 48.3224 94.3885 48.3583C94.6392 48.4299 94.89 48.5015 95.1765 48.6448C95.4273 48.7881 95.678 48.9314 95.9288 49.1463C96.1795 49.3612 96.3586 49.612 96.5377 49.9344C96.9318 50.615 97.1109 51.4389 97.1109 52.406C97.1109 53.9105 96.5736 55.0926 95.5347 55.8807C94.6034 56.5971 93.4929 56.9553 92.1676 56.9553H91.7736C91.6303 56.9553 91.5228 56.9553 91.4153 56.9553V60.0717ZM91.4153 55.5941C91.5586 55.6299 91.881 55.6657 92.3109 55.6657C92.7407 55.6657 93.1706 55.5941 93.5646 55.4866C93.9586 55.3792 94.281 55.1642 94.5676 54.9135C95.1407 54.3762 95.4273 53.5165 95.4273 52.406C95.4273 51.3672 95.1765 50.5792 94.675 50.0777C94.3168 49.7195 93.8512 49.5404 93.3138 49.5404C92.6332 49.5404 92.0959 49.7911 91.6661 50.2926C91.5586 50.4001 91.487 50.5433 91.4153 50.615V55.5941Z" fill="#0460B8" stroke="#0460B8" stroke-width="0.215054" stroke-miterlimit="10"/>
<path d="M99.7977 55.3075C99.6186 54.9851 99.4754 54.6269 99.3679 54.2329C99.2604 53.803 99.2246 53.2657 99.2246 52.5851C99.2246 51.9045 99.3679 51.2956 99.6545 50.7224C99.941 50.1493 100.335 49.6836 100.801 49.3254C101.696 48.609 102.843 48.2866 104.204 48.2866C104.92 48.2866 105.422 48.2866 105.78 48.3224L106.568 48.3941V56.812H105.099L105.028 55.8448C104.705 56.2747 104.204 56.5971 103.523 56.812C103.272 56.8836 103.022 56.9195 102.735 56.9195C102.448 56.9195 102.198 56.8836 101.947 56.8478C101.696 56.7762 101.41 56.7045 101.159 56.5612C100.908 56.4538 100.657 56.2747 100.407 56.0598C100.192 55.8807 99.9769 55.6299 99.7977 55.3075ZM104.92 49.5762C104.562 49.5403 104.24 49.5045 103.881 49.5045C103.523 49.5045 103.165 49.5762 102.771 49.6836C102.377 49.7911 102.054 50.006 101.768 50.2568C101.195 50.7941 100.908 51.618 100.908 52.7642C100.908 53.803 101.159 54.5911 101.66 55.0926C102.019 55.4508 102.484 55.6657 103.022 55.6657C103.702 55.6657 104.275 55.415 104.705 54.9135C104.813 54.806 104.884 54.6627 104.956 54.5911V49.5762H104.92Z" fill="#0460B8" stroke="#0460B8" stroke-width="0.215054" stroke-miterlimit="10"/>
<path d="M115.2 56.7762C114.878 56.8837 114.305 56.9195 113.517 56.9195C112.729 56.9195 112.012 56.8121 111.475 56.6329C110.902 56.4538 110.436 56.1315 110.042 55.7732C109.218 54.9852 108.824 53.8747 108.824 52.4777C108.824 51.1165 109.326 50.0419 110.293 49.2897C111.188 48.6091 112.263 48.2509 113.553 48.2509C114.341 48.2509 114.878 48.2867 115.2 48.3225V49.7912C114.735 49.6479 114.233 49.5762 113.624 49.5762C113.051 49.5762 112.55 49.6479 112.156 49.827C111.762 49.9703 111.439 50.221 111.224 50.4717C110.759 50.9732 110.544 51.6538 110.544 52.5135C110.544 53.9464 111.045 54.8777 112.084 55.3792C112.442 55.5583 112.8 55.63 113.159 55.63C113.517 55.63 113.768 55.63 113.947 55.5941C114.126 55.5941 114.305 55.5583 114.484 55.5225C114.842 55.4509 115.093 55.415 115.272 55.3434V56.7762H115.2Z" fill="#0460B8" stroke="#0460B8" stroke-width="0.215054" stroke-miterlimit="10"/>
<path d="M120.538 55.5224C120.717 55.5941 121.003 55.6299 121.361 55.6299C121.72 55.6299 122.042 55.5941 122.293 55.4866V56.7762C122.185 56.812 122.006 56.812 121.791 56.812H121.29C121.182 56.812 121.075 56.812 121.039 56.812C120 56.812 119.212 56.4538 118.711 55.7732C118.317 55.2359 118.102 54.4836 118.102 53.5523V49.5762H116.884V48.8239L118.102 48.3583L118.496 46.2806H119.749V48.3583H122.364V49.612H119.749V53.5881C119.678 54.6986 119.964 55.3075 120.538 55.5224Z" fill="#0460B8" stroke="#0460B8" stroke-width="0.215054" stroke-miterlimit="10"/>
<path d="M133.792 45.4568H134.902L139.702 56.812H138.018L136.872 53.9463H131.821L130.675 56.812H129.027L133.792 45.4568ZM136.335 52.6568L134.329 47.6777L132.323 52.6568H136.335Z" fill="#0460B8" stroke="#0460B8" stroke-width="0.215054" stroke-miterlimit="10"/>
<path d="M142.854 50.4717V56.812H141.206V48.3941H142.711L142.818 49.3254C143.427 48.8239 144.108 48.5015 144.896 48.3583C145.146 48.3224 145.397 48.2866 145.648 48.2866C146.651 48.2866 147.439 48.7165 147.94 49.5762C148.872 48.7165 149.875 48.2866 150.914 48.2866C151.952 48.2866 152.669 48.609 153.134 49.218C153.6 49.8269 153.851 50.8657 153.851 52.3344V56.8478H152.239V52.3702C152.239 50.9732 151.917 50.1135 151.236 49.8269C151.021 49.7195 150.734 49.6836 150.448 49.6836C149.731 49.6836 149.051 49.9344 148.442 50.4717V56.8478H146.794V52.2986C146.794 51.3314 146.651 50.6508 146.364 50.2568C146.078 49.8627 145.576 49.6836 144.86 49.6836C144.143 49.6478 143.463 49.9344 142.854 50.4717Z" fill="#0460B8" stroke="#0460B8" stroke-width="0.215054" stroke-miterlimit="10"/>
<path d="M160.442 56.9553C157.362 56.9553 155.821 55.4509 155.821 52.4419C155.821 51.1523 156.251 50.1135 157.111 49.3255C157.863 48.6091 158.759 48.2509 159.726 48.2509C160.8 48.2509 161.624 48.6091 162.233 49.3255C162.806 50.0061 163.057 50.9016 163.057 52.012V52.6568H157.505C157.505 54.1971 158.15 55.1285 159.403 55.4867C159.69 55.5583 160.156 55.5941 160.8 55.5941C161.445 55.5941 162.018 55.5225 162.627 55.3434V56.7404C162.018 56.8837 161.302 56.9553 160.442 56.9553ZM161.445 51.4747C161.445 50.9374 161.302 50.5076 161.015 50.1494C160.693 49.7195 160.227 49.5404 159.618 49.5404C159.009 49.5404 158.472 49.7553 158.078 50.1494C157.72 50.5076 157.541 50.9732 157.541 51.5106H161.445V51.4747Z" fill="#0460B8" stroke="#0460B8" stroke-width="0.215054" stroke-miterlimit="10"/>
<path d="M170.221 49.8986C169.935 49.8269 169.577 49.7553 169.147 49.7553C168.717 49.7553 168.395 49.7911 168.108 49.8986C167.857 49.9702 167.606 50.0777 167.392 50.221C167.033 50.4359 166.747 50.6866 166.568 50.9732V56.8836H164.92V48.4657H166.496L166.568 49.6478C166.962 49.1463 167.571 48.7523 168.359 48.5016C168.645 48.3941 168.968 48.3583 169.326 48.3583C169.684 48.3583 169.971 48.3941 170.186 48.4299V49.8986H170.221Z" fill="#0460B8" stroke="#0460B8" stroke-width="0.215054" stroke-miterlimit="10"/>
<path d="M173.732 45.9225C173.732 46.2449 173.624 46.4598 173.409 46.6389C173.194 46.818 172.944 46.8896 172.657 46.8896C172.335 46.8896 172.084 46.818 171.905 46.6389C171.69 46.4598 171.618 46.2449 171.618 45.9225C171.618 45.6001 171.726 45.3852 171.905 45.2061C172.12 45.027 172.37 44.9553 172.657 44.9553C172.979 44.9553 173.23 45.027 173.409 45.2061C173.624 45.3852 173.732 45.6359 173.732 45.9225ZM171.833 48.3941H173.481V56.812H171.833V48.3941Z" fill="#0460B8" stroke="#0460B8" stroke-width="0.215054" stroke-miterlimit="10"/>
<path d="M182.078 56.7762C181.756 56.8837 181.183 56.9195 180.395 56.9195C179.607 56.9195 178.89 56.8121 178.353 56.6329C177.78 56.4538 177.314 56.1315 176.92 55.7732C176.096 54.9852 175.702 53.8747 175.702 52.4777C175.702 51.1165 176.204 50.0419 177.171 49.2897C178.066 48.6091 179.141 48.2509 180.431 48.2509C181.219 48.2509 181.756 48.2867 182.078 48.3225V49.7912C181.613 49.6479 181.111 49.5762 180.502 49.5762C179.929 49.5762 179.428 49.6479 179.033 49.827C178.639 49.9703 178.317 50.221 178.102 50.4717C177.636 50.9732 177.422 51.6538 177.422 52.5135C177.422 53.9464 177.923 54.8777 178.962 55.3792C179.32 55.5583 179.678 55.63 180.036 55.63C180.395 55.63 180.645 55.63 180.825 55.5941C181.004 55.5941 181.183 55.5583 181.362 55.5225C181.72 55.4509 181.971 55.415 182.15 55.3434V56.7762H182.078Z" fill="#0460B8" stroke="#0460B8" stroke-width="0.215054" stroke-miterlimit="10"/>
<path d="M184.728 55.3075C184.549 54.9851 184.406 54.6269 184.299 54.2329C184.191 53.803 184.155 53.2657 184.155 52.5851C184.155 51.9045 184.299 51.2956 184.585 50.7224C184.872 50.1493 185.266 49.6836 185.731 49.3254C186.627 48.609 187.773 48.2866 189.134 48.2866C189.851 48.2866 190.352 48.2866 190.711 48.3224L191.499 48.3941V56.812H190.03L189.958 55.8448C189.636 56.2747 189.134 56.5971 188.454 56.812C188.203 56.8836 187.952 56.9195 187.666 56.9195C187.379 56.9195 187.128 56.8836 186.878 56.8478C186.627 56.7762 186.34 56.7045 186.09 56.5612C185.839 56.4538 185.588 56.2747 185.337 56.0598C185.122 55.8807 184.908 55.6299 184.728 55.3075ZM189.851 49.5762C189.493 49.5403 189.17 49.5045 188.812 49.5045C188.454 49.5045 188.096 49.5762 187.702 49.6836C187.308 49.7911 186.985 50.006 186.699 50.2568C186.125 50.7941 185.839 51.618 185.839 52.7642C185.839 53.803 186.09 54.5911 186.591 55.0926C186.949 55.4508 187.415 55.6657 187.952 55.6657C188.633 55.6657 189.206 55.415 189.636 54.9135C189.743 54.806 189.815 54.6627 189.887 54.5911V49.5762H189.851Z" fill="#0460B8" stroke="#0460B8" stroke-width="0.215054" stroke-miterlimit="10"/>
<path d="M197.911 49.6478C197.087 49.6478 196.371 49.9344 195.762 50.4717V56.812H194.114V48.3941H195.619L195.726 49.3254C196.622 48.6448 197.517 48.2866 198.484 48.2866C199.487 48.2866 200.204 48.5732 200.705 49.1821C201.207 49.8269 201.458 50.8299 201.458 52.2269V56.8478H199.81V52.2269C199.81 50.8657 199.452 50.0777 198.699 49.8269C198.449 49.7195 198.198 49.6478 197.911 49.6478Z" fill="#0460B8" stroke="#0460B8" stroke-width="0.215054" stroke-miterlimit="10"/>
<path d="M215.892 56.024C215.498 56.3106 214.997 56.5255 214.388 56.6688C213.779 56.812 213.063 56.8837 212.167 56.8837C211.307 56.8837 210.412 56.8479 209.516 56.7404V55.1643C210.304 55.3434 211.128 55.4509 211.916 55.4509C212.704 55.4509 213.313 55.415 213.743 55.3076C214.137 55.2001 214.46 55.0926 214.71 54.9494C215.176 54.6628 215.391 54.3404 215.391 53.8747C215.391 53.5523 215.319 53.2658 215.14 53.0867C214.854 52.8001 214.46 52.5494 213.958 52.2986L211.881 51.3315C211.164 51.0091 210.663 50.6867 210.34 50.4001C209.695 49.7912 209.373 49.0747 209.373 48.2509C209.373 47.427 209.731 46.7464 210.483 46.2091C211.272 45.6359 212.418 45.3494 213.886 45.3494C214.854 45.3494 215.713 45.3852 216.501 45.4568V47.0329C215.821 46.8897 215.069 46.818 214.245 46.818C213.421 46.818 212.812 46.8538 212.454 46.9613C212.095 47.0329 211.773 47.1404 211.594 47.2837C211.2 47.5344 211.021 47.821 211.021 48.215C211.021 48.6091 211.128 48.8956 211.379 49.1464C211.594 49.3613 211.988 49.6121 212.561 49.8986L214.71 50.9016C215.427 51.224 215.928 51.5464 216.215 51.8688C216.501 52.1553 216.716 52.4777 216.86 52.7643C217.003 53.0509 217.075 53.4449 217.075 53.8389C217.075 54.2688 216.967 54.6628 216.788 55.021C216.573 55.415 216.286 55.7374 215.892 56.024Z" fill="#0460B8" stroke="#0460B8" stroke-width="0.215054" stroke-miterlimit="10"/>
<path d="M225.242 56.7762C224.92 56.8837 224.347 56.9195 223.559 56.9195C222.771 56.9195 222.054 56.8121 221.517 56.6329C220.944 56.4538 220.478 56.1315 220.084 55.7732C219.26 54.9852 218.866 53.8747 218.866 52.4777C218.866 51.1165 219.368 50.0419 220.335 49.2897C221.23 48.6091 222.305 48.2509 223.595 48.2509C224.383 48.2509 224.92 48.2867 225.242 48.3225V49.7912C224.777 49.6479 224.275 49.5762 223.666 49.5762C223.093 49.5762 222.592 49.6479 222.198 49.827C221.804 49.9703 221.481 50.221 221.266 50.4717C220.801 50.9732 220.586 51.6538 220.586 52.5135C220.586 53.9464 221.087 54.8777 222.126 55.3792C222.484 55.5583 222.842 55.63 223.201 55.63C223.559 55.63 223.809 55.63 223.989 55.5941C224.168 55.5941 224.347 55.5583 224.526 55.5225C224.884 55.4509 225.135 55.415 225.314 55.3434V56.7762H225.242Z" fill="#0460B8" stroke="#0460B8" stroke-width="0.215054" stroke-miterlimit="10"/>
<path d="M231.296 49.6478C230.508 49.6478 229.756 49.9344 229.147 50.4717V56.812H227.499V44.6687H229.147V49.2896C230.042 48.609 230.938 48.2508 231.869 48.2508C232.872 48.2508 233.624 48.5374 234.09 49.1463C234.592 49.7911 234.842 50.7941 234.842 52.1911V56.812H233.195V52.1911C233.195 50.8299 232.836 50.0418 232.084 49.7911C231.869 49.7194 231.618 49.6478 231.296 49.6478Z" fill="#0460B8" stroke="#0460B8" stroke-width="0.215054" stroke-miterlimit="10"/>
<path d="M236.74 52.5851C236.74 51.2597 237.17 50.1851 237.994 49.3612C238.782 48.609 239.749 48.215 240.931 48.215C242.078 48.215 243.045 48.609 243.797 49.3612C244.621 50.1851 245.015 51.2597 245.015 52.5851C245.015 53.9105 244.621 54.9851 243.797 55.7732C243.009 56.5612 242.078 56.9194 240.931 56.9194C239.785 56.9194 238.818 56.5254 237.994 55.7732C237.134 54.9851 236.74 53.9105 236.74 52.5851ZM238.424 52.5851C238.424 53.9821 238.854 54.9135 239.749 55.415C240.072 55.5941 240.43 55.6657 240.895 55.6657C241.325 55.6657 241.719 55.5941 242.006 55.415C242.328 55.2359 242.543 55.0209 242.758 54.7344C243.116 54.1971 243.295 53.4806 243.295 52.5851C243.295 51.1881 242.866 50.2568 241.97 49.7553C241.648 49.5762 241.289 49.4687 240.86 49.4687C240.43 49.4687 240.072 49.5403 239.749 49.7194C239.427 49.8985 239.176 50.1135 238.961 50.4C238.639 51.009 238.424 51.7254 238.424 52.5851Z" fill="#0460B8" stroke="#0460B8" stroke-width="0.215054" stroke-miterlimit="10"/>
<path d="M246.484 52.5851C246.484 51.2597 246.914 50.1851 247.738 49.3612C248.526 48.609 249.493 48.215 250.675 48.215C251.822 48.215 252.789 48.609 253.541 49.3612C254.365 50.1851 254.759 51.2597 254.759 52.5851C254.759 53.9105 254.365 54.9851 253.541 55.7732C252.753 56.5612 251.822 56.9194 250.675 56.9194C249.529 56.9194 248.562 56.5254 247.738 55.7732C246.878 54.9851 246.484 53.9105 246.484 52.5851ZM248.168 52.5851C248.168 53.9821 248.598 54.9135 249.493 55.415C249.816 55.5941 250.174 55.6657 250.64 55.6657C251.069 55.6657 251.463 55.5941 251.75 55.415C252.072 55.2359 252.287 55.0209 252.502 54.7344C252.861 54.1971 253.04 53.4806 253.04 52.5851C253.04 51.1881 252.61 50.2568 251.714 49.7553C251.392 49.5762 251.034 49.4687 250.604 49.4687C250.174 49.4687 249.816 49.5403 249.493 49.7194C249.171 49.8985 248.92 50.1135 248.705 50.4C248.383 51.009 248.168 51.7254 248.168 52.5851Z" fill="#0460B8" stroke="#0460B8" stroke-width="0.215054" stroke-miterlimit="10"/>
<path d="M257.123 44.6687H258.771V53.6239C258.771 54.6986 259.022 55.3433 259.523 55.5224C259.702 55.5941 259.845 55.6299 260.06 55.6299C260.239 55.6299 260.419 55.5941 260.562 55.5583V56.812L260.275 56.8478C260.168 56.8478 260.096 56.8478 259.989 56.8478C258.95 56.8478 258.198 56.4896 257.732 55.809C257.374 55.2717 257.195 54.5195 257.195 53.5881V44.6687H257.123Z" fill="#0460B8" stroke="#0460B8" stroke-width="0.215054" stroke-miterlimit="10"/>
<path d="M74.4362 34.3163C71.3556 34.3163 70.2451 32.8477 70.2451 30.591C70.2451 28.4775 71.5347 26.6148 74.2929 26.6148C76.0481 26.6148 77.5168 27.188 77.5168 27.188V33.1701H79.3078V34.3522H74.4362V34.3163ZM76.0839 28.1193C76.0839 28.1193 75.2959 27.7611 74.1496 27.7611C72.6451 27.7611 71.7496 28.8357 71.7496 30.4119C71.7496 32.2387 72.6093 33.1342 74.6869 33.1342H76.0839V28.1193ZM72.1078 24.4298C72.1078 23.9641 72.466 23.5701 72.9675 23.5701C73.4332 23.5701 73.8272 23.9283 73.8272 24.4298C73.8272 24.8954 73.4332 25.2895 72.9675 25.2895C72.5018 25.2895 72.1078 24.9313 72.1078 24.4298ZM74.472 24.4298C74.472 23.9641 74.866 23.5701 75.3317 23.5701C75.7974 23.5701 76.1556 23.9283 76.1556 24.4298C76.1556 24.8954 75.7974 25.2895 75.3317 25.2895C74.866 25.2895 74.472 24.9313 74.472 24.4298Z" fill="#0460B8" stroke="#0460B8" stroke-width="0.430108" stroke-miterlimit="10"/>
<path d="M79.0566 33.1343H81.1343V34.3164H79.0566V33.1343Z" fill="#0460B8" stroke="#0460B8" stroke-width="0.430108" stroke-miterlimit="10"/>
<path d="M80.8838 33.1343H82.9614V34.3164H80.8838V33.1343Z" fill="#0460B8" stroke="#0460B8" stroke-width="0.430108" stroke-miterlimit="10"/>
<path d="M82.7471 33.1343H84.8247V34.3164H82.7471V33.1343Z" fill="#0460B8" stroke="#0460B8" stroke-width="0.430108" stroke-miterlimit="10"/>
<path d="M84.6094 33.1343H86.687V34.3164H84.6094V33.1343Z" fill="#0460B8" stroke="#0460B8" stroke-width="0.430108" stroke-miterlimit="10"/>
<path d="M86.4362 33.1343H89.6601V26.7582H91.1287V33.1343H92.884V34.3164H86.4004V33.1343H86.4362ZM87.7974 37.5761C87.3317 37.5761 86.9377 37.2179 86.9377 36.7164C86.9377 36.2507 87.2959 35.8567 87.7974 35.8567C88.2631 35.8567 88.6571 36.2149 88.6571 36.7164C88.6571 37.1821 88.2631 37.5761 87.7974 37.5761ZM90.1616 37.5761C89.6959 37.5761 89.3019 37.2179 89.3019 36.7164C89.3019 36.2507 89.6959 35.8567 90.1616 35.8567C90.6273 35.8567 90.9855 36.2149 90.9855 36.7164C91.0213 37.1821 90.6273 37.5761 90.1616 37.5761Z" fill="#0460B8" stroke="#0460B8" stroke-width="0.430108" stroke-miterlimit="10"/>
<path d="M92.6689 33.1343H97.8272C97.7913 29.982 96.4301 28.4417 93.6361 27.6537V26.5791L99.7257 22.7462V24.2507L95.3555 26.9373C97.7913 27.9402 99.2242 29.6238 99.2958 33.1701H100.764V34.3522H92.6689V33.1343Z" fill="#0460B8" stroke="#0460B8" stroke-width="0.430108" stroke-miterlimit="10"/>
<path d="M100.55 33.1343H102.627V34.3164H100.55V33.1343Z" fill="#0460B8" stroke="#0460B8" stroke-width="0.430108" stroke-miterlimit="10"/>
<path d="M102.376 33.1343H105.6V26.7582H107.069V34.3164H102.376V33.1343ZM103.737 37.5761C103.272 37.5761 102.877 37.2179 102.877 36.7164C102.877 36.2507 103.236 35.8567 103.737 35.8567C104.203 35.8567 104.597 36.2149 104.597 36.7164C104.597 37.1821 104.203 37.5761 103.737 37.5761ZM106.101 37.5761C105.636 37.5761 105.242 37.2179 105.242 36.7164C105.242 36.2507 105.636 35.8567 106.101 35.8567C106.567 35.8567 106.925 36.2149 106.925 36.7164C106.961 37.1821 106.567 37.5761 106.101 37.5761Z" fill="#0460B8" stroke="#0460B8" stroke-width="0.430108" stroke-miterlimit="10"/>
<path d="M107.284 38.2209L107.463 37.003C107.929 37.1821 108.466 37.2895 109.075 37.2895C110.401 37.2895 111.224 36.6447 111.224 34.5313V26.7582H112.693V33.1343H114.448V34.3164H112.693V34.388C112.693 36.6806 111.869 38.4358 108.968 38.4358C108.359 38.4358 107.786 38.3283 107.284 38.2209Z" fill="#0460B8" stroke="#0460B8" stroke-width="0.430108" stroke-miterlimit="10"/>
<path d="M114.233 33.1343H116.311V34.3164H114.233V33.1343Z" fill="#0460B8" stroke="#0460B8" stroke-width="0.430108" stroke-miterlimit="10"/>
<path d="M116.061 33.1343H118.138V34.3164H116.061V33.1343Z" fill="#0460B8" stroke="#0460B8" stroke-width="0.430108" stroke-miterlimit="10"/>
<path d="M117.923 33.1343H120V34.3164H117.923V33.1343Z" fill="#0460B8" stroke="#0460B8" stroke-width="0.430108" stroke-miterlimit="10"/>
<path d="M125.481 34.3164C123.619 34.3164 122.651 33.8149 122.15 32.9552C121.792 33.8507 121.04 34.3164 120.001 34.3164H119.75V33.1343H120.072C120.896 33.1343 121.469 32.6687 121.469 30.7701C121.469 28.406 122.831 26.5791 125.374 26.5791C127.774 26.5791 128.92 27.9403 128.92 30.3761V34.2806H125.481V34.3164ZM127.487 30.6269C127.487 28.5493 126.699 27.7612 125.302 27.7612C123.869 27.7612 122.974 28.8358 122.974 30.6269C122.974 32.3463 123.762 33.1343 125.696 33.1343H127.523V30.6269H127.487Z" fill="#0460B8" stroke="#0460B8" stroke-width="0.430108" stroke-miterlimit="10"/>
<path d="M129.959 21.1343C130.425 21.1343 130.855 21.1701 131.105 21.2059C130.819 21.0626 130.64 20.7044 130.64 20.4179C130.64 19.6298 131.177 18.8776 132.681 18.8776C133.004 18.8776 133.362 18.9134 133.541 18.9492L133.398 19.8089C133.255 19.7731 132.932 19.7373 132.61 19.7373C132.001 19.7373 131.714 20.0238 131.714 20.382C131.714 20.8119 132.037 21.1343 132.968 21.1343H133.828V21.994H129.959V21.1343ZM135.046 31.7014H133.541L130.998 23.2477L132.466 23.0328L135.046 31.7014ZM131.678 34.3164V33.1343H136.622V23.1402H138.126V34.3164H131.678Z" fill="#0460B8" stroke="#0460B8" stroke-width="0.430108" stroke-miterlimit="10"/>
<path d="M141.171 22.9969H142.64V34.3164H141.171V22.9969Z" fill="#0460B8" stroke="#0460B8" stroke-width="0.430108" stroke-miterlimit="10"/>
<path d="M154.997 34.3163C150.949 34.3163 149.373 32.7044 149.373 29.6596C149.373 28.6925 149.624 27.6178 149.91 27.0089L151.486 26.7223C151.128 27.4745 150.878 28.585 150.878 29.4805C150.878 31.9163 151.845 33.1701 155.212 33.1701H157.934V26.7581H159.403V33.1342H161.158V34.3163H154.997ZM152.812 24.4298C152.812 23.9641 153.17 23.5701 153.672 23.5701C154.137 23.5701 154.531 23.9283 154.531 24.4298C154.531 24.8954 154.137 25.2895 153.672 25.2895C153.17 25.2895 152.812 24.9313 152.812 24.4298ZM155.14 24.4298C155.14 23.9641 155.534 23.5701 156 23.5701C156.466 23.5701 156.824 23.9283 156.824 24.4298C156.824 24.8954 156.466 25.2895 156 25.2895C155.534 25.2895 155.14 24.9313 155.14 24.4298Z" fill="#0460B8" stroke="#0460B8" stroke-width="0.430108" stroke-miterlimit="10"/>
<path d="M160.943 33.1343H163.021V34.3164H160.943V33.1343Z" fill="#0460B8" stroke="#0460B8" stroke-width="0.430108" stroke-miterlimit="10"/>
<path d="M162.771 33.1343H164.848V34.3164H162.771V33.1343Z" fill="#0460B8" stroke="#0460B8" stroke-width="0.430108" stroke-miterlimit="10"/>
<path d="M164.633 33.1343H166.71V34.3164H164.633V33.1343Z" fill="#0460B8" stroke="#0460B8" stroke-width="0.430108" stroke-miterlimit="10"/>
<path d="M166.46 33.1343H171.618C171.582 29.982 170.221 28.4417 167.427 27.6537V26.5791L173.517 22.7462V24.2507L169.147 26.9373C171.654 27.9761 173.087 29.7313 173.087 33.5283V34.3522H166.46V33.1343Z" fill="#0460B8" stroke="#0460B8" stroke-width="0.430108" stroke-miterlimit="10"/>
<path d="M175.845 22.9969H177.314V33.1343H179.069V34.3164H175.81V22.9969H175.845Z" fill="#0460B8" stroke="#0460B8" stroke-width="0.430108" stroke-miterlimit="10"/>
<path d="M178.854 33.1343H180.932V34.3164H178.854V33.1343Z" fill="#0460B8" stroke="#0460B8" stroke-width="0.430108" stroke-miterlimit="10"/>
<path d="M180.681 33.1343H183.009V26.7582H184.478V33.1343H186.269V34.3164H180.681V33.1343ZM181.827 36.7164C181.827 36.2507 182.221 35.8567 182.687 35.8567C183.152 35.8567 183.582 36.2149 183.582 36.7164C183.582 37.1821 183.188 37.5761 182.687 37.5761C182.221 37.5761 181.827 37.2179 181.827 36.7164Z" fill="#0460B8" stroke="#0460B8" stroke-width="0.430108" stroke-miterlimit="10"/>
<path d="M186.054 33.1343H188.131V34.3164H186.054V33.1343Z" fill="#0460B8" stroke="#0460B8" stroke-width="0.430108" stroke-miterlimit="10"/>
<path d="M193.612 34.3164C191.75 34.3164 190.782 33.8149 190.281 32.9552C189.923 33.8507 189.17 34.3164 188.132 34.3164H187.881V33.1343H188.203C189.027 33.1343 189.6 32.6687 189.6 30.7701C189.6 28.406 190.961 26.5791 193.505 26.5791C195.905 26.5791 197.051 27.9403 197.051 30.3761V34.2806H193.612V34.3164ZM195.618 30.6269C195.618 28.5493 194.83 27.7612 193.433 27.7612C192.036 27.7612 191.105 28.8358 191.105 30.6269C191.105 32.3463 191.893 33.1343 193.827 33.1343H195.654V30.6269H195.618Z" fill="#0460B8" stroke="#0460B8" stroke-width="0.430108" stroke-miterlimit="10"/>
<path d="M198.592 37.5044C198.95 37.5044 199.272 37.5044 199.523 37.5402C199.38 37.4328 199.237 37.2178 199.237 36.9313C199.237 36.1432 199.846 35.4984 201.099 35.4984C201.457 35.4984 201.78 35.5343 201.995 35.5701L201.851 36.4656C201.672 36.4298 201.386 36.3581 201.099 36.3581C200.634 36.3581 200.347 36.5731 200.347 36.8955C200.347 37.2537 200.669 37.4686 201.422 37.4686H202.353V38.3641H198.592V37.5044ZM199.953 22.9969H201.422V34.3164H199.953V22.9969Z" fill="#0460B8" stroke="#0460B8" stroke-width="0.430108" stroke-miterlimit="10"/>
<path d="M211.809 34.3163C208.729 34.3163 207.618 32.8477 207.618 30.591C207.618 28.4775 208.908 26.6148 211.666 26.6148C213.421 26.6148 214.89 27.188 214.89 27.188V33.1701H216.681V34.3522H211.809V34.3163ZM213.421 28.1193C213.421 28.1193 212.633 27.7611 211.487 27.7611C209.982 27.7611 209.087 28.8357 209.087 30.4119C209.087 32.2387 209.947 33.1342 212.024 33.1342H213.421V28.1193ZM209.481 24.4298C209.481 23.9641 209.839 23.5701 210.341 23.5701C210.806 23.5701 211.2 23.9283 211.2 24.4298C211.2 24.8954 210.806 25.2895 210.341 25.2895C209.839 25.2895 209.481 24.9313 209.481 24.4298ZM211.845 24.4298C211.845 23.9641 212.239 23.5701 212.705 23.5701C213.17 23.5701 213.529 23.9283 213.529 24.4298C213.529 24.8954 213.17 25.2895 212.705 25.2895C212.239 25.2895 211.845 24.9313 211.845 24.4298Z" fill="#0460B8" stroke="#0460B8" stroke-width="0.430108" stroke-miterlimit="10"/>
<path d="M216.431 33.1343H218.508V34.3164H216.431V33.1343Z" fill="#0460B8" stroke="#0460B8" stroke-width="0.430108" stroke-miterlimit="10"/>
<path d="M218.257 33.1343H220.334V34.3164H218.257V33.1343Z" fill="#0460B8" stroke="#0460B8" stroke-width="0.430108" stroke-miterlimit="10"/>
<path d="M220.12 33.1343H222.198V34.3164H220.12V33.1343Z" fill="#0460B8" stroke="#0460B8" stroke-width="0.430108" stroke-miterlimit="10"/>
<path d="M221.946 33.1343H224.024V34.3164H221.946V33.1343Z" fill="#0460B8" stroke="#0460B8" stroke-width="0.430108" stroke-miterlimit="10"/>
<path d="M223.81 33.1343H224.383C225.529 33.1343 226.03 32.6328 226.03 30.8775V27.7253H227.499V31.0208C227.499 32.4178 227.822 33.2417 229.004 33.2417C230.15 33.2417 230.508 32.382 230.508 31.0208V27.0805H231.941V30.9492C231.941 32.6328 232.371 33.1343 234.054 33.1343H234.807C234.878 32.4537 234.95 31.4865 234.95 30.9134C234.95 29.1581 234.735 27.6537 234.413 26.4716L235.845 26.2208C236.168 27.4387 236.419 29.0149 236.419 30.7701C236.419 31.8447 236.311 33.2417 236.168 34.3163H233.768C232.227 34.3163 231.404 33.9223 231.081 33.0268C230.759 33.9581 229.863 34.4238 228.824 34.4238C227.535 34.4238 226.819 33.8507 226.568 33.0268C226.281 33.8149 225.636 34.3163 224.419 34.3163H223.881V33.1343H223.81Z" fill="#0460B8" stroke="#0460B8" stroke-width="0.430108" stroke-miterlimit="10"/>
<path d="M235.666 38.2209L235.845 37.003C236.311 37.1821 236.848 37.2895 237.457 37.2895C238.782 37.2895 239.606 36.6447 239.606 34.5313V26.7582H241.075V34.388C241.075 36.6806 240.251 38.4358 237.35 38.4358C236.741 38.4358 236.132 38.3283 235.666 38.2209Z" fill="#0460B8" stroke="#0460B8" stroke-width="0.430108" stroke-miterlimit="10"/>
<path d="M243.296 33.1343H248.454C248.418 30.197 247.236 28.5492 244.406 27.6895L244.765 26.4358C248.132 27.4746 249.815 29.3731 249.887 33.1343H251.141V34.3164H243.296V33.1343Z" fill="#0460B8" stroke="#0460B8" stroke-width="0.430108" stroke-miterlimit="10"/>
<path d="M256.621 34.3164C254.758 34.3164 253.791 33.8149 253.29 32.9552C252.931 33.8507 252.179 34.3164 251.14 34.3164H250.89V33.1343H251.212C252.036 33.1343 252.609 32.6687 252.609 30.7701C252.609 28.406 253.97 26.5791 256.514 26.5791C258.914 26.5791 260.06 27.9403 260.06 30.3761V34.2806H256.621V34.3164ZM258.627 30.6269C258.627 28.5493 257.839 27.7612 256.442 27.7612C255.009 27.7612 254.114 28.8358 254.114 30.6269C254.114 32.3463 254.902 33.1343 256.836 33.1343H258.663V30.6269H258.627Z" fill="#0460B8" stroke="#0460B8" stroke-width="0.430108" stroke-miterlimit="10"/>
<path d="M33.3497 7.05672L34.0303 11.0687L32.2392 10.1373L30.4482 9.17015L28.6213 10.1373L26.8303 11.0687L27.5109 7.05672L24.6094 4.22687L28.6213 3.65373L30.4482 0L32.2392 3.65373L36.2512 4.22687L33.3497 7.05672Z" fill="#0460B8"/>
<path d="M60.8599 39.4747C44.2748 44.5254 32.9912 72 32.9912 72V28.6209C32.9912 28.6209 35.3196 18.6986 49.2539 18.412L60.8599 39.4747Z" fill="#D10005"/>
<path d="M0 39.4747C17.4806 44.4538 27.8687 72 27.8687 72V28.6209C27.8687 28.6209 25.5403 18.6986 11.606 18.412L0 39.4747Z" fill="#0460B8"/>
</g>
<defs>
<clipPath id="clip0_1002_10077">
<rect width="316" height="72" fill="white"/>
</clipPath>
</defs>
</svg>
