<svg width="33" height="33" viewBox="0 0 33 33" fill="none" xmlns="http://www.w3.org/2000/svg">
<path d="M28.9987 9.59759C27.8299 8.30509 25.8774 7.65884 23.0449 7.65884H22.7149V7.60384C22.7149 5.29384 22.7149 2.43384 17.5449 2.43384H15.4549C10.2849 2.43384 10.2849 5.30759 10.2849 7.60384V7.67259H9.95493C7.10868 7.67259 5.16993 8.31884 4.00118 9.61134C2.63993 11.1238 2.68118 13.1588 2.81868 14.5476L2.83243 14.6438L2.96993 16.0876C2.98368 16.1013 3.01118 16.1288 3.03868 16.1426C3.49243 16.4451 3.95993 16.7476 4.45493 17.0226C4.64743 17.1463 4.85368 17.2563 5.05993 17.3663C7.41118 18.6588 9.99618 19.5251 12.6224 19.9513C12.7462 21.2438 13.3099 22.7563 16.3212 22.7563C19.3324 22.7563 19.9237 21.2576 20.0199 19.9238C22.8249 19.4701 25.5337 18.4938 27.9812 17.0638C28.0637 17.0226 28.1187 16.9813 28.1874 16.9401C28.8199 16.5826 29.4112 16.1976 29.9887 15.7713C30.0162 15.7576 30.0437 15.7301 30.0574 15.7026L30.1124 15.2076L30.1812 14.5613C30.1949 14.4788 30.1949 14.4101 30.2087 14.3138C30.3187 12.9251 30.2912 11.0276 28.9987 9.59759ZM17.9987 19.0163C17.9987 20.4738 17.9987 20.6938 16.3074 20.6938C14.6162 20.6938 14.6162 20.4326 14.6162 19.0301V17.2976H17.9987V19.0163ZM12.2512 7.65884V7.60384C12.2512 5.26634 12.2512 4.40009 15.4549 4.40009H17.5449C20.7487 4.40009 20.7487 5.28009 20.7487 7.60384V7.67259H12.2512V7.65884Z" fill="white"/>
<path opacity="0.4" d="M28.1882 16.9125C28.1195 16.9538 28.0507 16.995 27.982 17.0363C25.5345 18.4663 22.8257 19.4288 20.0207 19.8963C19.9107 21.2163 19.3332 22.7288 16.322 22.7288C13.3107 22.7288 12.7332 21.23 12.6232 19.9238C9.99695 19.5113 7.41195 18.645 5.0607 17.3388C4.85445 17.2288 4.6482 17.1188 4.4557 16.995C3.9607 16.72 3.4932 16.4175 3.03945 16.115C3.01195 16.1013 2.98445 16.0738 2.9707 16.06L3.80945 25.0113C4.0982 27.7476 5.2257 30.5663 11.2757 30.5663H21.7532C27.8032 30.5663 28.9307 27.7476 29.2195 24.9976L30.0857 15.675C30.072 15.7025 30.0445 15.73 30.017 15.7438C29.4257 16.17 28.8207 16.5688 28.1882 16.9125Z" fill="white"/>
</svg>
