<svg width="35" height="35" viewBox="0 0 35 35" fill="none" xmlns="http://www.w3.org/2000/svg">
<path d="M17.5 3.28125C16.142 3.28125 15.4631 3.28125 14.9195 3.47913C14.008 3.81086 13.29 4.52882 12.9583 5.44024C12.7604 5.98392 12.7604 6.66289 12.7604 8.02083V12.7604H8.02083C6.66289 12.7604 5.98392 12.7604 5.44024 12.9583C4.52882 13.29 3.81086 14.008 3.47913 14.9195C3.28125 15.4631 3.28125 16.142 3.28125 17.5C3.28125 18.858 3.28125 19.5369 3.47913 20.0805C3.81086 20.992 4.52882 21.7099 5.44024 22.0417C5.98392 22.2396 6.66289 22.2396 8.02083 22.2396H12.7604V26.9792C12.7604 28.3372 12.7604 29.016 12.9583 29.5597C13.29 30.4711 14.008 31.1891 14.9195 31.5209C15.4631 31.7188 16.142 31.7188 17.5 31.7188C18.858 31.7188 19.5369 31.7188 20.0805 31.5209C20.992 31.1891 21.7099 30.4711 22.0417 29.5597C22.2396 29.016 22.2396 28.3372 22.2396 26.9792V22.2396H26.9792C28.3372 22.2396 29.016 22.2396 29.5597 22.0417C30.4711 21.7099 31.1891 20.992 31.5209 20.0805C31.7188 19.5369 31.7188 18.858 31.7188 17.5C31.7188 16.142 31.7188 15.4631 31.5209 14.9195C31.1891 14.008 30.4711 13.29 29.5597 12.9583C29.016 12.7604 28.3372 12.7604 26.9792 12.7604H22.2396V8.02083C22.2396 6.66289 22.2396 5.98392 22.0417 5.44024C21.7099 4.52882 20.992 3.81086 20.0805 3.47913C19.5369 3.28125 18.858 3.28125 17.5 3.28125Z" fill="white"/>
</svg>
