<svg width="25" height="25" viewBox="0 0 25 25" fill="none" xmlns="http://www.w3.org/2000/svg">
<path fill-rule="evenodd" clip-rule="evenodd" d="M10.1035 2.34375H14.8952C17.0435 2.34375 18.1176 2.34375 18.8706 2.89083C19.1138 3.06752 19.3277 3.28139 19.5043 3.52457C20.0514 4.27757 20.0514 5.35172 20.0514 7.5V18.5384C20.0514 19.7053 20.0514 20.2887 19.8839 20.7567C19.5951 21.5643 18.9595 22.1999 18.1518 22.4887C17.6839 22.6562 17.1005 22.6562 15.9336 22.6562C15.4032 22.6562 15.138 22.6562 14.9253 22.5801C14.5582 22.4488 14.2693 22.1599 14.138 21.7928C14.0618 21.5801 14.0618 21.3149 14.0618 20.7845V19.0104C14.0618 18.1475 13.3623 17.4479 12.4993 17.4479C11.6364 17.4479 10.9368 18.1475 10.9368 19.0104V20.7845C10.9368 21.3149 10.9368 21.5801 10.8607 21.7928C10.7293 22.1599 10.4405 22.4488 10.0734 22.5801C9.8607 22.6562 9.59551 22.6562 9.0651 22.6562C7.89823 22.6562 7.3148 22.6562 6.8468 22.4887C6.03926 22.1999 5.40366 21.5643 5.11471 20.7567C4.94727 20.2887 4.94727 19.7053 4.94727 18.5384V7.5C4.94727 5.35172 4.94727 4.27757 5.49435 3.52457C5.67104 3.28139 5.8849 3.06752 6.12809 2.89083C6.88109 2.34375 7.95523 2.34375 10.1035 2.34375ZM11.353 8.46354C11.4577 8.28225 11.4577 8.03886 11.4577 7.55208C11.4577 7.0653 11.4577 6.82192 11.353 6.64062C11.2845 6.52186 11.1858 6.42324 11.0671 6.35467C10.8858 6.25 10.6424 6.25 10.1556 6.25C9.66882 6.25 9.42543 6.25 9.24414 6.35467C9.12538 6.42324 9.02676 6.52186 8.95818 6.64062C8.85352 6.82192 8.85352 7.0653 8.85352 7.55208C8.85352 8.03886 8.85352 8.28225 8.95818 8.46354C9.02676 8.5823 9.12538 8.68093 9.24414 8.7495C9.42543 8.85417 9.66882 8.85417 10.1556 8.85417C10.6424 8.85417 10.8858 8.85417 11.0671 8.7495C11.1858 8.68093 11.2845 8.5823 11.353 8.46354ZM16.0405 8.46354C16.1452 8.28225 16.1452 8.03886 16.1452 7.55208C16.1452 7.0653 16.1452 6.82192 16.0405 6.64062C15.972 6.52186 15.8733 6.42324 15.7546 6.35467C15.5733 6.25 15.3299 6.25 14.8431 6.25C14.3563 6.25 14.1129 6.25 13.9316 6.35467C13.8129 6.42324 13.7142 6.52186 13.6457 6.64062C13.541 6.82192 13.541 7.0653 13.541 7.55208C13.541 8.03886 13.541 8.28225 13.6457 8.46354C13.7142 8.5823 13.8129 8.68093 13.9316 8.7495C14.1129 8.85417 14.3563 8.85417 14.8431 8.85417C15.3299 8.85417 15.5733 8.85417 15.7546 8.7495C15.8733 8.68093 15.972 8.5823 16.0405 8.46354ZM11.4577 12.5C11.4577 12.9868 11.4577 13.2302 11.353 13.4115C11.2845 13.5302 11.1858 13.6289 11.0671 13.6974C10.8858 13.8021 10.6424 13.8021 10.1556 13.8021C9.66882 13.8021 9.42543 13.8021 9.24414 13.6974C9.12538 13.6289 9.02676 13.5302 8.95818 13.4115C8.85352 13.2302 8.85352 12.9868 8.85352 12.5C8.85352 12.0132 8.85352 11.7698 8.95818 11.5885C9.02676 11.4698 9.12538 11.3711 9.24414 11.3026C9.42543 11.1979 9.66882 11.1979 10.1556 11.1979C10.6424 11.1979 10.8858 11.1979 11.0671 11.3026C11.1858 11.3711 11.2845 11.4698 11.353 11.5885C11.4577 11.7698 11.4577 12.0132 11.4577 12.5ZM16.0405 13.4115C16.1452 13.2302 16.1452 12.9868 16.1452 12.5C16.1452 12.0132 16.1452 11.7698 16.0405 11.5885C15.972 11.4698 15.8733 11.3711 15.7546 11.3026C15.5733 11.1979 15.3299 11.1979 14.8431 11.1979C14.3563 11.1979 14.1129 11.1979 13.9316 11.3026C13.8129 11.3711 13.7142 11.4698 13.6457 11.5885C13.541 11.7698 13.541 12.0132 13.541 12.5C13.541 12.9868 13.541 13.2302 13.6457 13.4115C13.7142 13.5302 13.8129 13.6289 13.9316 13.6974C14.1129 13.8021 14.3563 13.8021 14.8431 13.8021C15.3299 13.8021 15.5733 13.8021 15.7546 13.6974C15.8733 13.6289 15.972 13.5302 16.0405 13.4115Z" fill="white"/>
</svg>
