<svg width="27" height="27" viewBox="0 0 27 27" fill="none" xmlns="http://www.w3.org/2000/svg">
<path d="M6.10426 16.1264C5.36424 15.3864 4.99424 15.0164 4.78106 14.6259C4.27649 13.7019 4.27649 12.5847 4.78106 11.6606C4.99424 11.2701 5.36424 10.9002 6.10426 10.1602L16.8435 20.8994C16.1034 21.6394 15.7334 22.0094 15.3431 22.2226C14.419 22.7271 13.3017 22.7271 12.3777 22.2226C11.9873 22.0094 11.6173 21.6394 10.8772 20.8994L10.0022 20.0243L7.921 22.938C6.92834 24.3277 4.92539 24.4935 3.71778 23.2858C2.51016 22.0782 2.67593 20.0753 4.06564 19.0826L6.9793 17.0015L6.10426 16.1264Z" fill="white"/>
<path d="M21.6556 16.0875C23.2961 14.4469 24.1165 13.6267 24.2737 12.6338C24.3245 12.3131 24.3245 11.9866 24.2737 11.6659C24.1165 10.673 23.2961 9.85274 21.6556 8.21215L18.7918 5.34837C17.1512 3.70777 16.3309 2.88748 15.338 2.73023C15.0174 2.67944 14.6908 2.67944 14.3701 2.73023C13.3772 2.88748 12.557 3.70777 10.9164 5.34836L7.29688 8.96787L18.0361 19.7071L21.6556 16.0875Z" fill="white"/>
</svg>
