<svg width="36" height="36" viewBox="0 0 36 36" fill="none" xmlns="http://www.w3.org/2000/svg">
<path d="M3.79821 23.8921C5.55795 19.6444 9.70302 16.875 14.3007 16.875H18.6849C23.2825 16.875 27.4276 19.6444 29.1874 23.8921C30.9102 28.0506 27.8539 32.625 23.3526 32.625H9.63295C5.13174 32.625 2.07541 28.0506 3.79821 23.8921Z" fill="white"/>
<path d="M10.875 9C10.875 5.89339 13.3934 3.375 16.5 3.375C19.6066 3.375 22.125 5.89339 22.125 9C22.125 12.1066 19.6066 14.625 16.5 14.625C13.3934 14.625 10.875 12.1066 10.875 9Z" fill="white"/>
<path d="M25.5 6.75528C26.2057 7.37946 26.625 8.15925 26.6251 9.00505C26.6254 9.85087 26.2064 10.6305 25.5009 11.2544M29.5629 4.5C30.5622 5.85579 31.125 7.38642 31.1253 9.00633C31.1256 10.6215 30.5668 12.1476 29.5734 13.5" stroke="white" stroke-width="3.125" stroke-linecap="round" stroke-linejoin="round"/>
</svg>
