<svg width="30" height="30" viewBox="0 0 30 30" fill="none" xmlns="http://www.w3.org/2000/svg">
<path d="M22.5 8.09004C22.5 6.86314 22.5 6.2497 22.1734 5.89172C22.0569 5.76412 21.9152 5.66204 21.7574 5.59192C21.3145 5.39521 20.7325 5.5892 19.5686 5.97717C17.6416 6.61951 16.6781 6.94067 16.034 7.61712C15.7987 7.86434 15.5981 8.14254 15.4381 8.444C15 9.26889 15 10.2845 15 12.3157V21.8783C15 23.1347 15 23.7629 15.3414 24.1242C15.45 24.2392 15.5795 24.3325 15.7229 24.3992C16.1738 24.6088 16.7696 24.4102 17.9615 24.0129L20.9615 23.0129C21.6191 22.7937 21.9479 22.684 22.1651 22.4507C22.2361 22.3743 22.2972 22.2894 22.3472 22.1979C22.5 21.918 22.5 21.5714 22.5 20.8783V8.09004Z" fill="white" fill-opacity="0.18"/>
<path d="M7.5 8.09004C7.5 6.86314 7.5 6.2497 7.82668 5.89172C7.94311 5.76412 8.08475 5.66204 8.24262 5.59192C8.68552 5.39521 9.2675 5.5892 10.4314 5.97717C12.3584 6.61951 13.3219 6.94067 13.966 7.61712C14.2013 7.86434 14.4019 8.14254 14.5619 8.444C15 9.26889 15 10.2845 15 12.3157V21.8783C15 23.1347 15 23.7629 14.6586 24.1242C14.55 24.2392 14.4205 24.3325 14.2771 24.3992C13.8262 24.6088 13.2304 24.4102 12.0385 24.0129L9.03849 23.0129C8.38094 22.7937 8.05216 22.684 7.8349 22.4507C7.7639 22.3743 7.70273 22.2894 7.65279 22.1979C7.5 21.918 7.5 21.5714 7.5 20.8783V8.09004Z" fill="white" fill-opacity="0.18"/>
<path d="M15 25V12.3157C15 10.2845 15 9.26889 15.4381 8.444C15.5981 8.14254 15.7987 7.86434 16.034 7.61712C16.6781 6.94067 17.6416 6.61951 19.5686 5.97717C20.7325 5.5892 21.3145 5.39521 21.7574 5.59192C21.9152 5.66204 22.0569 5.76412 22.1734 5.89172C22.5 6.2497 22.5 6.86314 22.5 8.09004V20.8783C22.5 21.5714 22.5 21.918 22.3472 22.1979C22.2972 22.2894 22.2361 22.3743 22.1651 22.4507C21.9479 22.684 21.6191 22.7937 20.9615 23.0129L15 25ZM15 25H24C24.9374 25 25.4061 25 25.7347 24.7613C25.8409 24.6842 25.9341 24.5909 26.0112 24.4848C26.25 24.1562 26.25 23.6874 26.25 22.75V10.6217C26.25 9.36539 26.25 8.73721 25.9086 8.37587C25.8 8.26089 25.6705 8.16757 25.5271 8.10087C25.0762 7.89126 24.4804 8.08991 23.2885 8.48721L22.5 8.75004" stroke="white" stroke-width="2" stroke-linecap="round" stroke-linejoin="round"/>
<path d="M15 25L9.03849 23.0129C8.38094 22.7937 8.05216 22.684 7.8349 22.4507C7.7639 22.3743 7.70273 22.2894 7.65279 22.1979C7.5 21.918 7.5 21.5714 7.5 20.8783V8.09004C7.5 6.86314 7.5 6.2497 7.82668 5.89172C7.94311 5.76412 8.08475 5.66204 8.24263 5.59192C8.68553 5.39521 9.2675 5.5892 10.4314 5.97717C12.3584 6.61951 13.3219 6.94067 13.966 7.61712C14.2012 7.86434 14.4019 8.14254 14.5619 8.444C15 9.26889 15 10.2845 15 12.3157V25ZM15 25H6C5.06256 25 4.59385 25 4.26526 24.7613C4.15915 24.6842 4.06582 24.5909 3.98872 24.4848C3.75 24.1562 3.75 23.6874 3.75 22.75V10.6217C3.75 9.36539 3.75 8.73721 4.09139 8.37587C4.20002 8.26089 4.3295 8.16757 4.47294 8.10087C4.92369 7.89126 5.51962 8.08991 6.71151 8.48721L7.5 8.75004" stroke="white" stroke-width="2" stroke-linecap="round" stroke-linejoin="round"/>
</svg>
