<svg width="29" height="29" viewBox="0 0 29 29" fill="none" xmlns="http://www.w3.org/2000/svg">
<path d="M26.2084 11.1387C25.437 17.6817 17.9013 23.49 15.3466 25.2849C15.0069 25.5236 14.837 25.643 14.6139 25.6711C14.5467 25.6797 14.4613 25.6801 14.3939 25.6721C14.1705 25.6457 13.9997 25.5278 13.6581 25.2919C11.0695 23.5053 3.39977 17.6904 2.79024 11.1391C1.9446 3.38305 10.2826 0.990367 14.5114 5.82489C18.7406 0.987925 27.0772 3.38043 26.2084 11.1387Z" fill="white" fill-opacity="0.18"/>
<path d="M3.625 17.5209H5.52654C6.0132 17.5209 6.25653 17.5209 6.47245 17.4347C6.5436 17.4061 6.61189 17.3711 6.67639 17.3297C6.87212 17.2041 7.01354 17.0062 7.29641 16.6101L8.07487 15.5203C8.70987 14.6313 9.02737 14.1868 9.45667 14.0782C9.61635 14.0377 9.78262 14.0303 9.94524 14.0565C10.3825 14.1269 10.738 14.5416 11.4489 15.3711C12.1812 16.2255 12.5475 16.6526 12.9939 16.7188C13.1598 16.7434 13.329 16.7331 13.4907 16.6888C13.926 16.5694 14.2382 16.1013 14.8623 15.1649L16.1923 13.1701C16.9565 12.0237 17.3386 11.4504 17.8491 11.3615C18.0105 11.3333 18.1758 11.3383 18.335 11.376C18.8392 11.4954 19.1864 12.0904 19.8807 13.2807L21.7247 16.4419C21.9971 16.9088 22.1333 17.1424 22.3406 17.2921C22.4088 17.3413 22.4819 17.3833 22.5587 17.4174C22.7924 17.5209 23.0629 17.5209 23.6035 17.5209H25.375" stroke="white" stroke-width="2" stroke-linecap="round" stroke-linejoin="round"/>
</svg>
