<svg width="30" height="30" viewBox="0 0 30 30" fill="none" xmlns="http://www.w3.org/2000/svg">
<path d="M13.75 11.25C13.75 12.2855 12.9105 13.125 11.875 13.125C10.8395 13.125 10 12.2855 10 11.25C10 10.2145 10.8395 9.375 11.875 9.375C12.9105 9.375 13.75 10.2145 13.75 11.25Z" fill="white"/>
<path d="M20 11.25C20 12.2855 19.1605 13.125 18.125 13.125C17.0895 13.125 16.25 12.2855 16.25 11.25C16.25 10.2145 17.0895 9.375 18.125 9.375C19.1605 9.375 20 10.2145 20 11.25Z" fill="white"/>
<path d="M26.25 15C26.25 21.2132 21.2132 26.25 15 26.25C8.7868 26.25 3.75 21.2132 3.75 15C3.75 8.7868 8.7868 3.75 15 3.75C21.2132 3.75 26.25 8.7868 26.25 15Z" fill="white" fill-opacity="0.18"/>
<path d="M15 26.25C21.2133 26.25 26.25 21.2133 26.25 15C26.25 8.7868 21.2133 3.75 15 3.75C8.7868 3.75 3.75 8.7868 3.75 15C3.75 21.2133 8.7868 26.25 15 26.25Z" stroke="white" stroke-width="2" stroke-linecap="round" stroke-linejoin="round"/>
</svg>
