<svg width="19" height="19" viewBox="0 0 19 19" fill="none" xmlns="http://www.w3.org/2000/svg">
<path opacity="0.4" d="M6.99767 1.55493C4.96056 1.55493 3.30444 3.21105 3.30444 5.24816C3.30444 7.24639 4.86726 8.86363 6.90437 8.93361C6.96657 8.92583 7.02877 8.92583 7.07542 8.93361C7.09097 8.93361 7.09875 8.93361 7.1143 8.93361C7.12207 8.93361 7.12207 8.93361 7.12985 8.93361C9.1203 8.86363 10.6831 7.24639 10.6909 5.24816C10.6909 3.21105 9.03478 1.55493 6.99767 1.55493Z" fill="white"/>
<path d="M10.9475 11.0019C8.7782 9.55569 5.24048 9.55569 3.05564 11.0019C2.06819 11.6628 1.52393 12.5569 1.52393 13.5133C1.52393 14.4696 2.06819 15.356 3.04787 16.0091C4.1364 16.74 5.56704 17.1054 6.99768 17.1054C8.42831 17.1054 9.85895 16.74 10.9475 16.0091C11.9272 15.3482 12.4714 14.4618 12.4714 13.4977C12.4637 12.5414 11.9272 11.655 10.9475 11.0019Z" fill="white"/>
<path opacity="0.4" d="M15.5425 5.70701C15.6669 7.2154 14.594 8.53719 13.1089 8.71602C13.1011 8.71602 13.1011 8.71602 13.0933 8.71602H13.07C13.0234 8.71602 12.9767 8.71602 12.9378 8.73157C12.1836 8.77045 11.4916 8.52941 10.9707 8.08623C11.7715 7.37091 12.2303 6.29793 12.137 5.13165C12.0826 4.50185 11.8649 3.92649 11.5383 3.43665C11.8338 3.28892 12.1759 3.19562 12.5257 3.16452C14.0497 3.03234 15.4103 4.16752 15.5425 5.70701Z" fill="white"/>
<path d="M17.0976 12.8991C17.0354 13.6533 16.5533 14.3064 15.7447 14.7496C14.9672 15.1773 13.9875 15.3794 13.0156 15.3561C13.5754 14.8507 13.902 14.2209 13.9642 13.5522C14.042 12.5881 13.5832 11.6629 12.6657 10.9242C12.1448 10.5121 11.5383 10.1856 10.8774 9.94454C12.5958 9.44693 14.7573 9.78126 16.0868 10.8542C16.8022 11.4296 17.1676 12.1527 17.0976 12.8991Z" fill="white"/>
</svg>
