<svg width="26" height="26" viewBox="0 0 26 26" fill="none" xmlns="http://www.w3.org/2000/svg">
<g clip-path="url(#clip0_85_12558)">
<path d="M19.3462 12.3683C20.8484 11.3188 22.0721 9.97635 22.7918 8.58792C23.6261 6.97843 23.708 5.43579 23.0222 4.24428C22.4613 3.26984 21.5723 2.65186 20.5189 2.50405C20.0007 2.4314 19.4588 2.47215 18.9213 2.61462V0.810984C18.9213 0.363061 18.5581 0 18.1103 0H7.8904C7.44248 0 7.07942 0.363128 7.07942 0.810984V2.61448C6.54211 2.47208 6.00022 2.43133 5.48194 2.50405C4.42844 2.65179 3.53941 3.26984 2.97849 4.24428C2.29264 5.43586 2.37447 6.97843 3.20886 8.58792C3.92858 9.97628 5.15227 11.3188 6.65443 12.3682C6.97439 12.5918 7.01068 12.8317 6.98471 12.9936C6.9553 13.1771 6.83799 13.3253 6.68587 13.3711C6.45725 13.4399 6.02039 13.3047 5.48187 12.7184C5.09372 12.2958 4.4364 12.268 4.01378 12.6562C3.59122 13.0444 3.56336 13.7018 3.95158 14.1243C4.9503 15.2115 5.9047 15.4621 6.57234 15.4621C6.87711 15.4621 7.12212 15.41 7.28429 15.3611C7.63089 15.2569 7.94491 15.0758 8.20989 14.8388C8.96643 15.8788 10.0527 16.6639 11.314 17.0392V20.0232H8.79185C7.60168 20.0232 6.63332 20.9915 6.63332 22.1817V24.9882C6.63332 25.547 7.08637 26.0001 7.64519 26.0001H18.3556C18.9144 26.0001 19.3675 25.547 19.3675 24.9882V22.1817C19.3675 20.9914 18.3992 20.0231 17.209 20.0231H14.6868V17.0392C15.9479 16.6638 17.0343 15.8787 17.7909 14.8387C18.0559 15.0758 18.3699 15.2568 18.7165 15.361C18.8787 15.4098 19.1236 15.4621 19.4285 15.4621C20.0961 15.462 21.0506 15.2113 22.0492 14.1242C22.4375 13.7015 22.4096 13.0444 21.987 12.6561C21.5645 12.2679 20.9072 12.2958 20.5189 12.7183C19.9804 13.3045 19.5438 13.4396 19.3149 13.371C19.1627 13.3253 19.0454 13.177 19.016 12.9936C18.99 12.8317 19.0263 12.5918 19.3462 12.3683ZM17.3436 22.1817V23.9763H8.65693V22.1817C8.65693 22.1073 8.71738 22.0469 8.79172 22.0469H17.2089C17.2832 22.0469 17.3436 22.1074 17.3436 22.1817ZM5.05371 7.6315C4.76567 7.07598 4.34722 6.03199 4.7795 5.28091C5.0239 4.85639 5.34803 4.62123 5.77053 4.56201C6.16509 4.50682 6.62691 4.6066 7.07935 4.82813V10.0734C6.20813 9.33347 5.49098 8.47486 5.05371 7.6315ZM18.9213 10.0734V4.82799C19.3736 4.60633 19.8355 4.50649 20.23 4.56201C20.6526 4.62123 20.9767 4.85639 21.2209 5.28091C21.6533 6.03199 21.2347 7.07598 20.9468 7.6315C20.5096 8.47486 19.7925 9.33347 18.9213 10.0734Z" fill="white"/>
</g>
<defs>
<clipPath id="clip0_85_12558">
<rect width="26" height="26" fill="white"/>
</clipPath>
</defs>
</svg>
