<svg width="35" height="35" viewBox="0 0 35 35" fill="none" xmlns="http://www.w3.org/2000/svg">
<path opacity="0.4" d="M21.8757 5.83325H13.1257C9.10065 5.83325 5.83398 9.09992 5.83398 13.1249V21.8749C5.83398 25.8999 9.10065 29.1666 13.1257 29.1666H21.8757C25.9007 29.1666 29.1673 25.8999 29.1673 21.8749V13.1249C29.1673 9.09992 25.9007 5.83325 21.8757 5.83325ZM25.1715 20.7958C25.1715 23.2166 23.2173 25.1708 20.7965 25.1708H14.2048C11.784 25.1708 9.82982 23.2166 9.82982 20.7958V14.2041C9.82982 11.7833 11.784 9.82908 14.2048 9.82908H20.7819C23.2027 9.82908 25.1569 11.7833 25.1569 14.2041V20.7958H25.1715Z" fill="white"/>
<path d="M13.2129 4.0105V5.83341H13.1254C12.3962 5.83341 11.6962 5.9355 11.0254 6.13966V4.0105C11.0254 3.41258 11.5066 2.91675 12.1191 2.91675C12.7171 2.91675 13.2129 3.41258 13.2129 4.0105Z" fill="white"/>
<path d="M18.5938 4.0105V5.83341H16.4062V4.0105C16.4062 3.41258 16.9021 2.91675 17.5 2.91675C18.0979 2.91675 18.5938 3.41258 18.5938 4.0105Z" fill="white"/>
<path d="M23.9902 4.0105V6.13966C23.3194 5.9355 22.6048 5.83341 21.8757 5.83341H21.8027V4.0105C21.8027 3.41258 22.2986 2.91675 22.8965 2.91675C23.4944 2.91675 23.9902 3.41258 23.9902 4.0105Z" fill="white"/>
<path d="M32.0842 12.1042C32.0842 12.7167 31.603 13.198 30.9905 13.198H29.1676V13.1251C29.1676 12.3959 29.0655 11.6813 28.8613 11.0105H30.9905C31.603 11.0105 32.0842 11.5063 32.0842 12.1042Z" fill="white"/>
<path d="M32.0827 17.5C32.0827 18.0979 31.6014 18.5938 30.9889 18.5938H29.166V16.4062H30.9889C31.6014 16.4062 32.0827 16.8875 32.0827 17.5Z" fill="white"/>
<path d="M32.0842 22.8958C32.0842 23.4937 31.603 23.9895 30.9905 23.9895H28.8613C29.0655 23.3187 29.1676 22.6041 29.1676 21.8749V21.802H30.9905C31.603 21.802 32.0842 22.2833 32.0842 22.8958Z" fill="white"/>
<path d="M23.9902 28.8604V30.9895C23.9902 31.5874 23.4944 32.0833 22.8965 32.0833C22.2986 32.0833 21.8027 31.5874 21.8027 30.9895V29.1666H21.8757C22.6048 29.1666 23.3194 29.0645 23.9902 28.8604Z" fill="white"/>
<path d="M18.6074 29.1667V30.9897C18.6074 31.5876 18.1116 32.0834 17.5137 32.0834C16.9012 32.0834 16.4199 31.5876 16.4199 30.9897V29.1667H18.6074Z" fill="white"/>
<path d="M13.2129 29.1666V30.9895C13.2129 31.5874 12.7171 32.0833 12.1191 32.0833C11.5066 32.0833 11.0254 31.5874 11.0254 30.9895V28.8604C11.6962 29.0645 12.3962 29.1666 13.1254 29.1666H13.2129Z" fill="white"/>
<path d="M6.13893 11.0105C5.93477 11.6813 5.83268 12.3959 5.83268 13.1251V13.198H4.00977C3.41185 13.198 2.91602 12.7167 2.91602 12.1042C2.91602 11.5063 3.41185 11.0105 4.00977 11.0105H6.13893Z" fill="white"/>
<path d="M5.83268 16.4062V18.5938H4.00977C3.41185 18.5938 2.91602 18.0979 2.91602 17.5C2.91602 16.8875 3.41185 16.4062 4.00977 16.4062H5.83268Z" fill="white"/>
<path d="M6.13893 23.9895H4.00977C3.41185 23.9895 2.91602 23.4937 2.91602 22.8958C2.91602 22.2833 3.41185 21.802 4.00977 21.802H5.83268V21.8749C5.83268 22.6041 5.93477 23.3187 6.13893 23.9895Z" fill="white"/>
<path d="M20.7967 9.8291H14.2051C11.7842 9.8291 9.83008 11.7833 9.83008 14.2041V20.7812C9.83008 23.202 11.7842 25.1562 14.2051 25.1562H20.7822C23.203 25.1562 25.1572 23.202 25.1572 20.7812V14.2041C25.1717 11.7979 23.203 9.8291 20.7967 9.8291ZM19.8197 19.0166L18.4488 21.4083C18.2447 21.7583 17.8801 21.9624 17.5009 21.9624C17.3113 21.9624 17.1217 21.9187 16.9613 21.8166C16.4363 21.5104 16.2613 20.8395 16.553 20.3291L17.5447 18.6083H16.6842C15.9842 18.6083 15.4155 18.302 15.1092 17.777C14.803 17.252 14.8322 16.5958 15.1676 15.9979L16.5384 13.6062C16.8447 13.0812 17.5155 12.9062 18.0259 13.1979C18.5509 13.5041 18.7259 14.1749 18.4342 14.6854L17.4426 16.4062H18.303C19.003 16.4062 19.5717 16.7124 19.878 17.2374C20.1988 17.7624 20.1697 18.4041 19.8197 19.0166Z" fill="white"/>
</svg>
