<svg width="38" height="38" viewBox="0 0 38 38" fill="none" xmlns="http://www.w3.org/2000/svg">
<path d="M34.3422 14.5955C33.3314 23.1692 23.4569 30.7799 20.1094 33.132C19.6644 33.4447 19.4418 33.6011 19.1493 33.638C19.0613 33.6492 18.9493 33.6497 18.8611 33.6393C18.5684 33.6047 18.3445 33.4502 17.8969 33.1411C14.505 30.8 4.45499 23.1806 3.65629 14.5961C2.54821 4.43294 13.4738 1.2977 19.015 7.63259C24.5567 1.2945 35.4806 4.4295 34.3422 14.5955Z" fill="white"/>
<path d="M4.75 22.9583H7.24168C7.87936 22.9583 8.19822 22.9583 8.48114 22.8453C8.57437 22.8079 8.66386 22.762 8.74838 22.7077C9.00484 22.5432 9.19016 22.2838 9.56082 21.7648L10.5809 20.3368C11.4129 19.172 11.829 18.5894 12.3915 18.4471C12.6007 18.3941 12.8186 18.3844 13.0317 18.4188C13.6046 18.5109 14.0704 19.0543 15.0021 20.1413C15.9616 21.2608 16.4415 21.8206 17.0265 21.9073C17.2439 21.9395 17.4656 21.926 17.6774 21.8679C18.2479 21.7115 18.6569 21.0981 19.4747 19.8712L21.2175 17.2572C22.2189 15.755 22.7196 15.0039 23.3885 14.8873C23.5999 14.8504 23.8165 14.8569 24.0252 14.9064C24.6859 15.0628 25.1408 15.8425 26.0506 17.4021L28.4669 21.5444C28.8238 22.1562 29.0022 22.4623 29.2739 22.6585C29.3632 22.7229 29.459 22.778 29.5597 22.8226C29.8659 22.9583 30.2203 22.9583 30.9287 22.9583H33.25" stroke="white" stroke-width="2" stroke-linecap="round" stroke-linejoin="round"/>
</svg>
